<svg xmlns="http://www.w3.org/2000/svg" xmlns:xlink="http://www.w3.org/1999/xlink" viewBox="0 0 1270.47 808.49"><defs><style>.cls-1{fill:#e8e6df;}.cls-2{fill:#380d0b;}.cls-3{fill:#f4eccb;}.cls-4{fill:url(#名称未設定グラデーション_61);}.cls-5{fill:url(#名称未設定グラデーション_61-2);}.cls-6{fill:url(#名称未設定グラデーション_61-3);}.cls-7{fill:#e71927;}.cls-8{fill:#ef5f25;}.cls-9{fill:#fff;}</style><linearGradient id="名称未設定グラデーション_61" x1="395.76" y1="463.89" x2="673.35" y2="-16.9" gradientUnits="userSpaceOnUse"><stop offset="0" stop-color="#f16d24"/><stop offset="0.17" stop-color="#ee4f25"/><stop offset="0.35" stop-color="#eb3727"/><stop offset="0.54" stop-color="#e92627"/><stop offset="0.75" stop-color="#e81b28"/><stop offset="1" stop-color="#e81828"/></linearGradient><linearGradient id="名称未設定グラデーション_61-2" x1="407.28" y1="673.85" x2="780.91" y2="26.71" xlink:href="#名称未設定グラデーション_61"/><linearGradient id="名称未設定グラデーション_61-3" x1="528.85" y1="793.6" x2="891.53" y2="165.41" xlink:href="#名称未設定グラデーション_61"/></defs><title>img_hero</title><g id="img_hero"><g id="fruit"><path id="path" class="cls-1" d="M210.68,405.65c0-.66,0-1.31-.08-2q-.17-3.34-.57-6.63c0-.38-.09-.77-.14-1.15q-.5-3.81-1.3-7.53v0a95.09,95.09,0,0,0-11.36-28.92l-.49-.81q-1.65-2.71-3.48-5.32-.58-.83-1.18-1.65c-.58-.79-1.1-1.6-1.7-2.38-1.84-2.38-3.82-4.7-5.88-6.88-1.48-1.58-2.89-3-4.31-4.27a90.51,90.51,0,0,0-6.88-5.94,96,96,0,0,0-56.62-20.35c-1,0-1.91-.06-2.9-.06s-1.94,0-3,.06A97.07,97.07,0,0,0,47.4,338.07c-1.46,1.39-2.88,2.82-4.28,4.31A96.79,96.79,0,0,0,29.75,457.15a98.47,98.47,0,0,0,13.37,18q2.09,2.18,4.28,4.27a98.79,98.79,0,0,0,18,13.37,96.77,96.77,0,0,0,45.35,12.88c1,0,2,.06,3,.06s2,0,3-.06a97.07,97.07,0,0,0,63.36-26.26c1.57-1.47,3-2.88,4.28-4.31a96.41,96.41,0,0,0,26.35-66.36C210.81,407.72,210.71,406.69,210.68,405.65Zm-16.83,3.1a80.05,80.05,0,1,1-80.05-80.05A80.15,80.15,0,0,1,193.85,408.75Z"/><path id="path-2" data-name="path" class="cls-1" d="M110.39,417a1.11,1.11,0,0,0-.43-.08h-.12L72.59,454.19a6.52,6.52,0,0,0-.37,3c.18,2,1.27,3.41,3,5a42.66,42.66,0,0,0,12.9,8.68,42.47,42.47,0,0,0,15,3h.24c2.06,0,4-.11,5.64-1.44a6.54,6.54,0,0,0,1.84-2.38l0-52.77A1.66,1.66,0,0,0,110.39,417Z"/><path id="path-3" data-name="path" class="cls-1" d="M117.22,400.49a1.29,1.29,0,0,0,.51.1h0L155,363.34a6.63,6.63,0,0,0,.4-3c-.18-2-1.28-3.39-3-5a39.12,39.12,0,0,0-28.1-11.65h0c-2.07,0-4.06.11-5.64,1.41a6.45,6.45,0,0,0-1.87,2.47l0,52.68A1.86,1.86,0,0,0,117.22,400.49Z"/><path id="path-4" data-name="path" class="cls-1" d="M105.55,412.17a1.75,1.75,0,0,0-1.63-1.07H55.44a6.83,6.83,0,0,0-5.29,2.48c-1.26,1.56-1.47,3.31-1.41,5.64a39.14,39.14,0,0,0,11.65,28.16c1.45,1.45,2.93,2.77,5,3a5.88,5.88,0,0,0,.7,0,6.67,6.67,0,0,0,2.29-.42l37.25-37.28A1.35,1.35,0,0,0,105.55,412.17Z"/><path id="path-5" data-name="path" class="cls-1" d="M167.22,370.12c-1.45-1.45-2.93-2.77-5-3l-.64,0a6.79,6.79,0,0,0-2.34.41L122,404.83a1.31,1.31,0,0,0,.09.51,1.71,1.71,0,0,0,1.6,1.07h48.51a6.79,6.79,0,0,0,5.26-2.48c1.28-1.55,1.5-3.31,1.44-5.64a39.13,39.13,0,0,0-11.65-28.16Z"/><path id="path-6" data-name="path" class="cls-1" d="M50.15,403.93a6.9,6.9,0,0,0,5.29,2.48h48.48a1.75,1.75,0,0,0,1.63-1.07,1.15,1.15,0,0,0,.08-.55L68.36,367.53a6.82,6.82,0,0,0-2.27-.41,5.8,5.8,0,0,0-.7,0c-2,.18-3.37,1.26-5,3a39.13,39.13,0,0,0-11.66,28.16C48.74,400.34,48.85,402.32,50.15,403.93Z"/><path id="path-7" data-name="path" class="cls-1" d="M177.44,413.57a6.72,6.72,0,0,0-5.26-2.48H123.67a1.71,1.71,0,0,0-1.6,1.07,1.27,1.27,0,0,0-.08.58L159.22,450a6.85,6.85,0,0,0,2.29.41,5.87,5.87,0,0,0,.7,0c2-.18,3.33-1.22,5-3a39.13,39.13,0,0,0,11.65-28.16C178.87,417.16,178.76,415.18,177.44,413.57Z"/><path id="path-8" data-name="path" class="cls-1" d="M109,345.09a7.42,7.42,0,0,0-4.95-1.42h-.93a42.49,42.49,0,0,0-15,3,42.56,42.56,0,0,0-12.9,8.68c-1.45,1.45-2.77,2.92-3,5a6.34,6.34,0,0,0,.41,3l37.23,37.23h0a2.32,2.32,0,0,0,.5-.13,1.2,1.2,0,0,0,.43-.27V347.45A6.89,6.89,0,0,0,109,345.09Z"/><path id="path-9" data-name="path" class="cls-1" d="M117.73,416.92a1.29,1.29,0,0,0-.51.1,1.42,1.42,0,0,0-.46.3V470a6.31,6.31,0,0,0,1.86,2.41,7.23,7.23,0,0,0,5,1.45h.93a39.15,39.15,0,0,0,27.89-11.65c1.41-1.38,2.8-2.9,3-5a6.61,6.61,0,0,0-.41-3Z"/></g><g id="fruit-2" data-name="fruit"><path id="path-10" data-name="path" class="cls-1" d="M1265.25,602.74c2.91-5.53,9-17,2-30-4-7.52-11-12-20.55-13.38-1.78-.25-3.45-.38-4.8-.48l-.59,0c-9.28-7.41-22.58-12.75-37.09-14.81-19.72-2.8-39.58.5-55.93,9.28-31.68,17-48.58,53.41-46.9,78.8l-.56,1.07c-2.91,5.53-9,17-2,30,4,7.51,11,12,20.55,13.37,1.78.25,3.45.38,4.79.48l.59,0c9.37,7.51,22.74,12.9,37.29,15,19.48,2.76,39.13-.51,55.33-9.22,31.91-17.14,49-53.61,47.3-79Zm-135,45.92a6.95,6.95,0,1,1,7.85-5.91A7,7,0,0,1,1130.24,648.66Zm33.87,8.54a6.95,6.95,0,1,1,7.85-5.9A6.95,6.95,0,0,1,1164.11,657.2Zm11.23-37.93a6.95,6.95,0,1,1,7.85-5.91A6.95,6.95,0,0,1,1175.34,619.27Zm47.51-46.36a6.95,6.95,0,1,1-7.85,5.9A6.95,6.95,0,0,1,1222.85,572.91Zm-14.45,90.34a6.95,6.95,0,1,1,7.85-5.91A6.95,6.95,0,0,1,1208.39,663.25Zm9.13-39.63a6.95,6.95,0,1,1,7.85-5.91A6.95,6.95,0,0,1,1217.52,623.62Z"/></g><g id="fruit-3" data-name="fruit"><path id="path-11" data-name="path" class="cls-1" d="M1103,492a26.46,26.46,0,1,0,13.64,34.85A26.46,26.46,0,0,0,1103,492Z"/><path id="path-12" data-name="path" class="cls-1" d="M1070.7,477.8A26.46,26.46,0,1,0,1057.06,443,26.46,26.46,0,0,0,1070.7,477.8Z"/><path id="path-13" data-name="path" class="cls-1" d="M1154.52,456.7a26.46,26.46,0,1,0,13.64,34.84A26.46,26.46,0,0,0,1154.52,456.7Z"/><path id="path-14" data-name="path" class="cls-1" d="M1059.6,415.13A26.46,26.46,0,1,0,1046,380.29,26.45,26.45,0,0,0,1059.6,415.13Z"/><path id="path-15" data-name="path" class="cls-1" d="M1143.42,394a26.46,26.46,0,1,0,13.64,34.84A26.45,26.45,0,0,0,1143.42,394Z"/><path id="path-16" data-name="path" class="cls-1" d="M1206,421.42a26.46,26.46,0,1,0,13.64,34.84A26.46,26.46,0,0,0,1206,421.42Z"/><path id="path-17" data-name="path" class="cls-1" d="M1194.94,358.75a26.46,26.46,0,1,0,13.64,34.84A26.46,26.46,0,0,0,1194.94,358.75Z"/><path id="path-18" data-name="path" class="cls-1" d="M1111.12,379.85A26.46,26.46,0,1,0,1097.48,345,26.46,26.46,0,0,0,1111.12,379.85Z"/><polygon id="path-19" data-name="path" class="cls-1" points="1156.77 342.86 1171.92 349.49 1183.33 323.39 1201.35 331.27 1207.97 316.12 1156.79 293.74 1150.17 308.89 1168.18 316.77 1156.77 342.86"/></g><g id="fruit-4" data-name="fruit"><path id="path-20" data-name="path" class="cls-1" d="M119.69,587.29a38.54,38.54,0,0,0-43.6-29.72c-.25-.86-.5-1.76-.71-2.75a38.09,38.09,0,0,1,2.73-25.21,3.75,3.75,0,1,0-6.74-3.29,45.59,45.59,0,0,0-3.31,30.12c.24,1.07.5,2.06.77,3A38.55,38.55,0,0,0,44.37,604c7.17,32.38-16.33,42.61-9,75.56,7.61,34.37,40.5,50.93,74.87,43.32s57.19-36.51,49.58-70.88C152.49,619,126.86,619.67,119.69,587.29Z"/><path id="path-21" data-name="path" class="cls-1" d="M26,563.32a34.62,34.62,0,0,0,34.53-6.2,34.59,34.59,0,0,0-23-26.52A41.19,41.19,0,0,0,0,535.7,41.22,41.22,0,0,0,26,563.32Z"/></g><g id="apple"><g id="object"><path id="object-2" data-name="object" class="cls-2" d="M275.44,708.49c-1.89-7,14.48-.73,2.28-24.89.2-1.21-10.83-21.21-11.38-22.35-5.11-11-5.62-24.6-21.54-7.14-1,.93-2,1.84-3,2.69a20.51,20.51,0,0,1-6.22,3.87c-3.24,1.18-5.82.36-7.22-2.77a115,115,0,0,1-4.13-10.78c-1.7-5.14-3.24-10.34-4.74-15.54-2.29-7.92-4.46-15.88-6.76-23.79-1.2-4.11-2.43-8.23-3.88-12.25-1.83-5.08-4.92-9.46-8.33-13.61-.84-1-1.68-2.06-2.53-3.07a1.87,1.87,0,0,1-.26-2,4,4,0,0,1,4.39-2.84c2.37.26,4.71.78,7.07,1.12,2.59.38,5.18.79,7.79,1,2.3.19,3.26-.76,3.35-3.1,0-1.19-.18-2.39-.14-3.58a4.91,4.91,0,0,1,.47-2.19c2.2-3.95,3.74-6.1,6-10,.1-.17,1.26,2.92,1.38,2.75,2.16,3,2.42,5.78,4.59,8.79.74-2,4.79-7.86,5.59-9.67,2.12-4.79,6.55-9.36,10.67-12.44a5.36,5.36,0,0,1,1.62-.74c1.59-.49.73,1.08,2,2.45,3.66,4.06,5,8,8.35,12.33a3.12,3.12,0,0,0,1.35,1c2.66.92,22.89,17.91,25,25.56.44,1.58,4,11.29,4.75,12.73,1.88,3.4,6.73,10,8.69,13.39,1.09,1.86,2.13,23.59.35,24.74-.46.3,7,27.59,12.31,43.46,1.57,4.72,20.56,1,8.46,16.18C317.83,702.66,286.92,717.14,275.44,708.49Z"/><path id="object-3" data-name="object" class="cls-2" d="M233,559.62a27.39,27.39,0,0,1-4.2-8,3,3,0,0,0-1.85-2.1,35.74,35.74,0,0,1-4.21-2.65c-.49.22-1.29.54-2,.93-.52.27-.38,1.28.3,1.87-1.09.69,0,.89.34,1.35-1.19.81.32.94.41,1.49l-1.2.33c-.43-.37,1-1.34-.41-1.41-.31-.41.95-1.26-.34-1.35,0-.46.13-1.05-.1-1.31s-.63-1.51-1.63-.46l.82.91c-1,.74.15.91.4,1.4-1,.68,0,.87.32,1.27-.43.59-.43.59.48,1.53-1.25.79.46.85.3,1.4l-1.21.33.18-1.26-1.67.83.34-1.52-1.88.52c-.38-.41,1-1.38-.45-1.37-.14-.54.93-1.31-.39-1.45l.27-1.2-1.06.24c-.36-.43,1-1.4-.44-1.44-.11-.5.92-1.27-.33-1.35-.37-.41,1.13-1.35-.45-1.32-.13-.52,1-1.29-.25-1.44-.39-.41.94-1.26-.48-1.3-.33-.43,1-1.3-.34-1.46-.3-.43,1.12-1.34-.38-1.33-.27-.48,1-1.3-.42-1.38-.16-.47,1-1.3-.36-1.37-.23-.45.92-1.25-.17-1.33a7.64,7.64,0,0,0-.76-1.1,2.1,2.1,0,0,1-.2-2.61,5.22,5.22,0,0,0,.31-.49c-.95-1.17-.89-1.59.41-2.5.58-.4,1-.83.64-1.57a.19.19,0,0,1,0-.1c.06-.35,0-.78.21-1a13,13,0,0,1,2.12-2.46c.29-.24,1.13.19,1.84.35.6-.61,1.32-1.44,2.14-2.15a8.62,8.62,0,0,1,7.63-2.27,1.34,1.34,0,0,0,1.61-.82c.45-.92,1-.91,1.59,0,.36.56.76.75,1.37.37.8-.5,1.37-.24,1.37.72,0,.77.3,1,1,1.14,4.33,1,8.42,3.44,9.71,7.8a37.61,37.61,0,0,1,1,5.26c.2,1.39-.1,1.69-1.46,2-.32.06-1.65.15-2.1.2.25,2.45-.87,4.35-2.48,6a.91.91,0,0,0-.17.69c.43,2.35,1.48,4.25,3.88,5.12a1.89,1.89,0,0,1,.34.19s0,.05.06.16A28.89,28.89,0,0,0,233,559.62Zm-19.89-34.84.11.23,1.69.51.19-.17c-.23-.22-.43-.58-.7-.64A4.65,4.65,0,0,0,213.13,524.78Z"/></g><path id="object-4" data-name="object" class="cls-2" d="M1047.71,663.26a25.39,25.39,0,0,0-9.8-3.19,19.88,19.88,0,0,0-.68-2.68c-.63-1.91,1.4-9.67-.77-15.06s-4.53-4.78-4.53-4.78c-2-2.68-9.22-5.28-9.22-5.28l1.62-9.45.89-.27c4.83,1.13,9.24-2.41,10.44-4.25a30.63,30.63,0,0,1,2.58-3.37c1.56-1.44,1.82-3.39,2.4-3.69s2-3.4,2-4.55-.45-1.59-1.12-1.79h0l2.08-3.78c.64-.48,1.94-1.67,1.94-1.67s.94-.13,3.3-1.88,2.44-3.78,1.46-4.25c-.53-.25-1.94.33-3.26,1,.14-.48.16-.88-.09-1.09-.62-.54-1.74-.95-3,.54l-.3.38c.17-.48.37-1,.61-1.5.93-2,.39-2.22-.72-2.87s-3.21,2.16-3.21,2.16c0-.78-.58-1.08-1.57-1.32s-3.65,4-4.45,5a15.58,15.58,0,0,0-1.64,3.24c-.22.47-1.37,3.37-1.37,3.37-.89,0-1.6,2.46-2.27,2.49s-3,1.78-3,1.78c.09-1.11-1.3-1.65-1.3-1.65a14,14,0,0,1-.32-3.25,5.41,5.41,0,0,0-1.8-3.61c-.68-1.81-5-8.35-5-8.35.31-.43,0-1.61,0-1.61.76,0,1.38-2.22,1.38-2.22,2.19,1.15,2.81.07,2.81.07,5.14.94,3.66-.34,5.62-1.7s6.13-10.42,6.13-10.42c.89-.27,1.16-1.52,1.2-1.84s.76-.22,1.56-1a5.08,5.08,0,0,0,.7-1.24.89.89,0,0,0,.76,0c.31-.12.43-.67.43-1.06.32.2.67.2.83,0a1.66,1.66,0,0,0,.18-.71l.14,0c.27-.1.39-.52.42-.89.12,0,.22,0,.25-.1l.07-.15.19-.39a.79.79,0,0,0-.1-.77,1.77,1.77,0,0,0,.65-.77.48.48,0,0,0-.18-.48,1.94,1.94,0,0,0,.07-.38c.15.06.28.09.29.07a.52.52,0,0,0,0-.13s.06-.82,0-1.2a.6.6,0,0,0-.37-.52,1.54,1.54,0,0,0,.28-.87.46.46,0,0,0-.13-.26,1.72,1.72,0,0,0,.09-1,.42.42,0,0,0-.32-.25,1.26,1.26,0,0,0,.05-.5.51.51,0,0,0-.45-.37,1.67,1.67,0,0,0,.18-.92c-.07-.29-.46-.43-.88-.32l-.11-.32h0c.42-.13.55-1,.46-1.32a.45.45,0,0,0-.37-.29,1.47,1.47,0,0,0,0-.63.42.42,0,0,0-.32-.25,1.5,1.5,0,0,0,0-.66c-.1-.25-.44-.33-.79-.22a1.39,1.39,0,0,0,.07-1.08l-.3-.5h0c.07-.05.1-.09.1-.09l-.32-.5-.34-.53c-.08-.13-.34-.1-.63,0a1.51,1.51,0,0,0-.08-1.14.59.59,0,0,0-.76-.08,1.62,1.62,0,0,0-.14-1.16c-.16-.21-.52-.19-.84,0l-.09-.12a1.41,1.41,0,0,0-.14-1.29.53.53,0,0,0-.63-.05,1.59,1.59,0,0,0-.31-1,.45.45,0,0,0-.45-.08.62.62,0,0,0,0-.1.51.51,0,0,0-.55-.26,1.53,1.53,0,0,0-.41-.83.55.55,0,0,0-.65.08,1.52,1.52,0,0,0-.51-.9c-.23-.14-.57,0-.8.3l0,0a.72.72,0,0,0-.26-.91l-.31-.14-.21-.09c-.23-.08-.5.14-.66.49h0c0-.41-.55-.87-.85-.92a.66.66,0,0,0-.66.51l-.32-.06a1.31,1.31,0,0,0-1-.59.62.62,0,0,0-.52.49,1.39,1.39,0,0,0-.95-.41c-.29,0-.5.36-.5.76l-.22,0a1.22,1.22,0,0,0-1.12-.54.63.63,0,0,0-.43.58,1.41,1.41,0,0,0-1-.28.7.7,0,0,0-.41.77,1.35,1.35,0,0,0-1.09-.3c-.27.08-.42.45-.36.85l-.1,0c-.11-.43-.95-.56-1.24-.47a.7.7,0,0,0-.34.82,1.37,1.37,0,0,0-1.15-.25c-.26.1-.38.48-.28.88l-.08,0c-.15-.41-1-.47-1.27-.36a.7.7,0,0,0-.28.82l-.17.05a1.36,1.36,0,0,0-1.2-.19.63.63,0,0,0-.27.69h0a1.51,1.51,0,0,0-1.1-.05.62.62,0,0,0-.25.68l-.18.11a.76.76,0,0,0-.89-.12l-.32.18-.15.08c-.13.07-.11.35,0,.67a1.56,1.56,0,0,0-1.21.1c-.23.16-.23.56,0,.9l-.09.07c-.31-.27-1.14,0-1.34.28a.61.61,0,0,0,.1.8,1.18,1.18,0,0,0-1,.5l-.31.6s.28.24.68.42h0l0,.06h0a.72.72,0,0,0-1,.25l-.14.33-.08.2c-.09.2.08.47.37.65a1.15,1.15,0,0,0-.89.52l-.26.56c0,.07.2.24.53.42l0,.07a1.43,1.43,0,0,0-1.07.64.54.54,0,1,1-.51.95l-.15.27-.13.23c-.14.25.06.62.44.83v0c-.38-.19-1.06.35-1.2.62s.06.64.43.83c-.4-.12-1,.43-1.12.71s.11.66.51.82h0l0,0c-.4-.17-1,.45-1.15.73s.13.65.54.8v0c-.41-.07-1,.52-1.06.81s.11.57.46.73c-.41,0-.94.57-1,.85s.16.59.55.71l0,.07c-.4,0-.85.62-.92.89a.54.54,0,0,0,.27.56l0,0a1.14,1.14,0,0,0-.23.08c-.4.19-.48,1-.38,1.3a.45.45,0,0,0,.33.27v.05l-.08.16s-6-4.58-11.14-4-11.73,4.9-16.09,10.88-4.09,5-6.31,8.72a63.27,63.27,0,0,0-3.64,7.23,52.27,52.27,0,0,0-4.08,7.48,16.53,16.53,0,0,0-1,7.08s-3.47,5.71-3.55,6.59a6,6,0,0,0,1,2.54c-2,4.09-.34,6.27-.34,6.27l-2.11,6.67a8.51,8.51,0,0,0-5.11,1.84c-1.43-2-3.14-3.92-4.74-4.28-3.76-.86-4.42-.37-4.87.34s2.06,1.2,3.19,5.07-2.35,5.2-1.89,7.94-.25,4,2.79,6.14a6.47,6.47,0,0,0,2.32.91,23.47,23.47,0,0,0,7.52,2.14s2.91,2.18,12,7.19a37.55,37.55,0,0,0,18.24,4.49c2.56,4.54,18.88,8.7,25.69,12.37s16.76,3.45,16.76,3.45c11.5,5.32,18.44-2.42,20.4-5.4S1057.51,668.7,1047.71,663.26Z"/><path id="object-5" data-name="object" class="cls-3" d="M933.65,669.71c-47.49,57.08-120.17,78.95-133.92,81.5-13.29,10.26-84.72,56.67-159,57.27C524.43,809.42,317,659.94,282.55,584.81S200.42,410.14,255.07,283c27.76-64.55,70.68-94.81,107-110.8,53.77-23.69,136.19-22,148.47-21,7-10.14,54.83-73.5,107.21-100.12,35.36-18,86-32,153.5-12.63,133,38.21,179.84,138.17,216.17,212.39S1008,580.26,933.65,669.71Z"/><path class="cls-4" d="M655.79,33.75c12-4,91.79-19.09,110.75,5,30.59,38.87,71.81,246.1-132.75,343-228,108-392-1-405-19,.35-43.46,39-122,63-150,35,20,168.88,86.54,269,26,86-52,98.42-113.63,91.38-149.63C647.79,66.75,622,53.39,617.28,51.61c-5.65-2.12-4.74-1.86-4.74-1.86S643.79,37.75,655.79,33.75Z"/><path class="cls-5" d="M226.79,392.75c50,40,230,116,437-1,191.72-108.36,154-293,128-347,103,18,161,133,161,133s41.54,243.54-213.25,385c-228.75,127-407.75,53-446.75,45C221.79,508.75,226.79,392.75,226.79,392.75Z"/><path class="cls-6" d="M308.79,627.75c25,15,195,83,428-38,238.1-123.65,238-345,235-378,59,84,29,279,16,332-28,43-21,76.06-168,171-144,93-308,67-308,67,3.45-2.3-58.87-28.41-110-63C364.29,693.38,308.79,627.75,308.79,627.75Z"/><path class="cls-7" d="M294.39,46.21s59.34,41.86,105.43,23.41C431.77,56.84,517,74.15,517,74.15S482.3,157,415.8,151.39C299.83,141.66,294.39,46.21,294.39,46.21Z"/><path class="cls-8" d="M517.54,75.75s-3-49,24-60,39,7,49,21c5.26,7.36,27,15,27,15-17-7-29.5-4.25-56,3A146.65,146.65,0,0,0,517.54,75.75Z"/><path id="object-6" data-name="object" class="cls-2" d="M543.33,159.79l25.45,38.69-9.3,4.18-32.39-26.91-13.32,6-1.4,42.09-9.3,4.18-12-44.72L487.16,185l-19.6-26.1,15.11-6.79-22-81.86-18.67.8,14.78-15.27-.42-1.55L434.86,30.61l-.22.1-1.86-4.15,9.39-4.22-4.71-10.48,2.4-1.08-1.77-3.93,1.53-.69L438,2.45,443.41,0l1.67,3.71L446.61,3,448.37,7l2.4-1.08,4.71,10.48,9.39-4.22,1.86,4.15.22-.1L470.45,49l.34.51L492,48.62,479,62l46.58,70.81,15.11-6.79,6.49,32Zm-85-119.27a7.12,7.12,0,1,0,9.42,3.58A7.12,7.12,0,0,0,458.34,40.53Z"/></g><path class="cls-9" d="M542.37,544.13A29.69,29.69,0,0,0,563,546.72q13.07-3.16,11.11-12.69-1.66-7.79-10.88-7.36-4.19.35-9.2.73-9,.49-14.7-3.64A19.26,19.26,0,0,1,531.8,512q-2.06-9.1,2.53-16,4.42-6.81,14.81-9.27a37.94,37.94,0,0,1,23.42,2.24l-3.72,9.93A30.91,30.91,0,0,0,551,497.28a12.75,12.75,0,0,0-7.3,4.21q-2.7,3.27-1.66,8.29a8,8,0,0,0,3.49,4.92q2.82,2,8,1.79,2.88-.15,7.81-.62,9.76-.81,15.57,3.84a20.62,20.62,0,0,1,7.41,12q4,20-19,25.55a38.44,38.44,0,0,1-27.82-3.67Z"/><path class="cls-9" d="M637.74,527.76a26.6,26.6,0,0,1-5.35,8.17,20.75,20.75,0,0,1-8.83,5.5,21.7,21.7,0,0,1-16.38-1.21q-8.33-3.76-12.64-16.74-4-13.23.62-21.2a21.36,21.36,0,0,1,12.74-10.34,21.75,21.75,0,0,1,10.33-.72,25.23,25.23,0,0,1,9.14,3.8l-4.93,8.56a12.25,12.25,0,0,0-11.13-2.07q-12.05,3.62-7.37,19,5,15.17,16.93,11.13a12,12,0,0,0,7.91-8.06Z"/><path class="cls-9" d="M679.76,514.36l-.17.08a8.29,8.29,0,0,1-2.36,5.2,19.67,19.67,0,0,1-6.67,4.32q-7.57,3.22-13.41,1a14.24,14.24,0,0,1-8.71-8.17,14.62,14.62,0,0,1-.55-11.33q2-5.57,9.13-8.82l12.5-5.5-2.16-4.9q-2.62-6.19-11.85-1.92a17.35,17.35,0,0,0-5,3.06,7.18,7.18,0,0,0-1.94,4.28L639,489.19q2.09-9.2,12.21-13.44,8.44-3.82,15-2.65t10.42,9.71l13.95,31.69-9,4Zm-6.85-15.56-10.84,4.77q-7.81,3.65-5.34,9a5.48,5.48,0,0,0,3.81,3.13q2.76,1,7.27-1,5.72-2.41,7.41-4.92,1.47-2.41-.83-7.64Z"/><path class="cls-9" d="M674.35,442.56l8.67-4.68,27.63,51.17q1.65,3.05,4.9,1.3l3-1.62,4.54,8.42-3.87,2.09A13.86,13.86,0,0,1,710.1,501q-4.58-.73-7.75-6.59Z"/><path class="cls-9" d="M757.82,471.35l-.16.1a8.28,8.28,0,0,1-1.62,5.47,19.67,19.67,0,0,1-6,5.2Q743,486.36,736.88,485a14.25,14.25,0,0,1-9.75-6.89,14.61,14.61,0,0,1-2.1-11.15q1.21-5.79,7.83-10l11.63-7.17-2.81-4.55q-3.45-5.77-12-.27a17.33,17.33,0,0,0-4.54,3.72,7.18,7.18,0,0,0-1.33,4.51L714,452q.81-9.4,10.24-15,7.83-4.94,14.49-4.69t11.66,8.19L768.56,470l-8.39,5.17Zm-8.92-14.47-10.08,6.22q-7.24,4.69-4.05,9.68a5.48,5.48,0,0,0,4.2,2.57q2.87.59,7.06-2,5.33-3.17,6.66-5.89,1.13-2.59-1.87-7.46Z"/><path class="cls-9" d="M573.58,699.74l17-3.19,7.18,38.37-4.55.85-14-2,1.66-5.57,9.75,1.43-4.93-26.34-11.9,2.23,1,31.64L569,741.77l-1.18-35.13-9,1.68-1.05-5.62,9.83-1.84-.15-3.78-5.15,1-1.05-5.62,12-2.24Z"/><path class="cls-9" d="M629.12,692.92,614.79,697l-1.61-5.69,14.33-4.05Zm9.48-8.19,6-1.68,10.07,35.6-30.36,8.59-1.59-5.63,24.41-6.9Z"/><path class="cls-9" d="M667.26,672.94l30.43-11.79,8,20.61-3.8,17.3-16.29,9.16-4.54-4.37,15.32-8.64,2.9-13.23-5.09-13.13-24.79,9.61Z"/><path class="cls-9" d="M748.09,643.32l6.18,12.42-8.59,8.53,8.73,17.53L742,688l-4.58-9.19,4.87-2.43,2.24,4.5,2.74-1.36-10.34-20.76,4.81-2.4,1.46,2.92,4.54-4.46-2.18-4.38L726.32,660,724,655.33Z"/><path class="cls-9" d="M798.39,625.88l5.23-3.05,7.27,12.45-3.66,16-14.45,8.43-21.12-36.18-4.76,2.78L764,621.37l10.1-5.9,20.95,35.88,6.7-3.91,2.59-11.35Z"/><path class="cls-9" d="M831.63,595.93l-12.27,8.44L816,599.5l12.27-8.44Zm6.35-10.8,5.1-3.51,21,30.48L838,630l-3.31-4.82,20.9-14.37Z"/><path class="cls-9" d="M910,570.57l1.5,6.49L888.6,573.6,890.73,596l-6.35-2.64-1.94-21.1,1.75-17.37-4.45-5.24L862.23,564.5,858.4,560l22.14-18.8,9.95,11.72L889,567.36Z"/><g id="text_kansai"><path id="text" class="cls-9" d="M432.72,331l2.57,19-12.35,1.67,4,29.86-5,.67-6.62-48.84Zm-3.8,4.77-8,1.08.45,3.32,8-1.08Zm-6.55,11.65,8-1.08-.45-3.32-8,1.08Zm17.85,12.16.29,2.15,9.34-1.26.56,4.12-9.34,1.26.08.61,9.88,8.73-3.76,2.7-8-7-5.69,8.78-4.35-1.6L436.47,367l-.07-.49-9.34,1.26-.56-4.12,9.34-1.26-.29-2.15-7.25,1-.56-4.12,3.69-.5-1.49-3.11,5-.68,1.49,3.11,1.72-.23.67-3.41,5-.67-.6,3.4,3.69-.5.56,4.12Zm-4.92-28.92,17.26-2.34,6.62,48.84-5.1.69L450,348l-12.16,1.65ZM448,333.21l-7.8,1.06.45,3.32,7.8-1.06Zm-6.37,11.62,7.8-1.06-.45-3.32-7.8,1.06Z"/><path id="text-2" data-name="text" class="cls-9" d="M509.32,320.33l-12.1,3.25,1.14,4.25,10.3-2.77,10.08,37.55-32.52,8.73-10.08-37.55,9.76-2.62-1.14-4.25L473.15,330l-1.37-5.09,36.17-9.71Zm-4.53,10.85-5.15,1.38,2.62,9.76,4-1.08,1.27,4.73-8.92,2.4-3.89-14.49-2.51.67.13,17.94-5.06-1.15-.1-15.44-4.73,1.27L490,365.26l22.34-6Zm-11.33-2-1.14-4.25-2.63.71,1.14,4.25Z"/><path id="text-3" data-name="text" class="cls-9" d="M556.58,296.21l5.66,14-28.1,11.38-5.65-14Zm11.58,18.85-17.58,7.12,10.36,25.57-4.2,1.7-3.28-8.1-9.23,9.42-3.63-3,2.75-2.79-6.91-17.07-3,1.21-1.51-3.73,34.71-14.06Zm-15.07-13.43-18.39,7.45.81,2,18.39-7.45Zm-15.53,14.51L556,308.7l-.81-2-18.39,7.45Zm9.7,9.92-.88-2.18-5.86,2.37.88,2.18Zm2.12,5.23-.84-2.07-5.86,2.37.84,2.07Zm-2.67,10.25,4.84-4.9-.88-2.18-5.86,2.37Zm31.35-3.2-2.94,3.47-7.53-4.71-2.14,8.76-4.75-.49,2.74-11.08-5.58-4.7,2.67-3.16,4.38,3.71-.84-6.55-9.94,4-1.67-4.14L568,317.22l2.07,16Z"/><path id="text-4" data-name="text" class="cls-9" d="M632.07,310.3l-3.12,4.55-21.67-10.43L604,328.17H598.6l3.78-27.53-4.85-9.08L583.64,299l-2.42-4.54L595.11,287l-4.41-8.26,4.7-2.51,4.41,8.26L613.92,277l2.42,4.54-14.11,7.54,5,9.3Z"/><path id="text-5" data-name="text" class="cls-9" d="M648.57,272.2l-1.88,1.31,14.81,21.27-4,2.76-14.81-21.27-4.63,3.22-2.66-3.82,3-2.05-.37-1.4-7.85-4.43-2.59-10.13,4.12-2.87,2.72,10.64,2.23,1.25-3-11.31,3.92-2.73,4.7,18.26,3.1-2.16-4-4.27,3.77-2.62,8.65,9.39-3.76,2.62Zm36.11,3.57-2.15,4.29-13.76-7.5,1.73,15.72-4.6.56-2.2-19.32-9.16-10L658.1,257l8.57,9.37-6.42-12.15-4.07,2.83-4.47-8.6-3.51,2.44,5.28,7.58,10.09,19.27-5,.62-8.86-17-5.42-7.78-2.59,1.81-2.62-3.77,14.71-10.24,4.58,8.75,4-2.76L674.12,270ZM652,298l-11.8-16.94,3.36-2.34,11.8,16.94Zm-1.24-19.46,3.87-2.69,8.43,9.39L659.24,288Z"/><path id="text-6" data-name="text" class="cls-9" d="M696.18,210.64l9.17,4.08,22.22,23.11-9.07,8.73-3.35-3.49,5.27-5.07L702,218.82l-4.56-2.06L693,221l14.61,15.2,4.93,12.29-8.71,8.38-20.72-21.54-3.56-8.71Zm7.33,28.65-14.18-14.75-3.67,3.52,1.67,4.15,16.8,17.48,2.55-2.45Z"/></g></g></svg>