<svg xmlns="http://www.w3.org/2000/svg" viewBox="0 0 200 200"><defs><style>.a{fill:#b93931;}.b{fill:#333332;}.c{fill:#0da179;}.d{fill:#585757;}</style></defs><title>square_light</title><path class="a" d="M113.27,104.34H86.73a2.65,2.65,0,0,1-2.65-2.65V75.14a2.65,2.65,0,0,1,2.65-2.65h26.54a2.65,2.65,0,0,1,2.65,2.64h0v26.55a2.65,2.65,0,0,1-2.65,2.65h0"/><path class="b" d="M113.27,105.13H86.73a3.44,3.44,0,0,1-3.44-3.44V75.14a3.44,3.44,0,0,1,3.44-3.43h26.54a3.44,3.44,0,0,1,3.44,3.43v26.55A3.44,3.44,0,0,1,113.27,105.13ZM86.73,73.29a1.86,1.86,0,0,0-1.86,1.86v26.55a1.86,1.86,0,0,0,1.86,1.86h26.54a1.86,1.86,0,0,0,1.86-1.86V75.14a1.86,1.86,0,0,0-1.86-1.86Z"/><path class="c" d="M115.92,83.11h-8a2.65,2.65,0,0,1-2.65-2.65h0v-8h8a2.65,2.65,0,0,1,2.65,2.65v8Z"/><path class="b" d="M116.71,83.9H108a3.44,3.44,0,0,1-3.43-3.44V71.71h8.75a3.44,3.44,0,0,1,3.44,3.44V83.9ZM106.1,73.28v7.18A1.86,1.86,0,0,0,108,82.32h7.18V75.15a1.86,1.86,0,0,0-1.86-1.86H106.1Z"/><path class="d" d="M57.71,123.08a2.12,2.12,0,0,0-1.42-.44,2.62,2.62,0,0,0-1.27.28,2.28,2.28,0,0,0-.81.74,3.1,3.1,0,0,0-.44,1.06,5.8,5.8,0,0,0-.13,1.24,4.71,4.71,0,0,0,.14,1.15,3.05,3.05,0,0,0,.44,1,2.22,2.22,0,0,0,.77.7,2.31,2.31,0,0,0,1.14.26,2.28,2.28,0,0,0,1.62-.54,2.46,2.46,0,0,0,.71-1.53H59.9a3.89,3.89,0,0,1-1.17,2.44,3.74,3.74,0,0,1-2.58.86,4.39,4.39,0,0,1-1.72-.31,3.31,3.31,0,0,1-1.25-.89,3.83,3.83,0,0,1-.76-1.37,5.72,5.72,0,0,1-.24-1.75,6.21,6.21,0,0,1,.25-1.79,4.13,4.13,0,0,1,.75-1.45,3.51,3.51,0,0,1,1.26-1,4.12,4.12,0,0,1,1.76-.35,5.19,5.19,0,0,1,1.36.17,3.29,3.29,0,0,1,1.12.54,2.9,2.9,0,0,1,.79.91,3.35,3.35,0,0,1,.4,1.31H58.4A2.12,2.12,0,0,0,57.71,123.08Z"/><path class="d" d="M63.85,118.36v4.49h0a1.87,1.87,0,0,1,.46-.67,2.55,2.55,0,0,1,.67-.44,3.47,3.47,0,0,1,.77-.26,3.93,3.93,0,0,1,.78-.08,3.72,3.72,0,0,1,1.39.23,2.31,2.31,0,0,1,.9.64,2.4,2.4,0,0,1,.48,1,5.26,5.26,0,0,1,.14,1.26v5.59H68.09v-5.76a1.69,1.69,0,0,0-.46-1.25,1.71,1.71,0,0,0-1.27-.47,2.84,2.84,0,0,0-1.11.2,2.07,2.07,0,0,0-.78.56,2.4,2.4,0,0,0-.47.85,3.45,3.45,0,0,0-.16,1.06v4.8H62.46V118.36Z"/><path class="d" d="M79.78,130.07a2,2,0,0,1-1,.21,1.2,1.2,0,0,1-.86-.3,1.32,1.32,0,0,1-.32-1,3.35,3.35,0,0,1-1.34,1,4.62,4.62,0,0,1-2.75.17,2.55,2.55,0,0,1-.9-.41A2,2,0,0,1,72,129a2.46,2.46,0,0,1-.22-1.1,2.5,2.5,0,0,1,.25-1.19,2.15,2.15,0,0,1,.65-.75,3,3,0,0,1,.92-.44q.52-.15,1.06-.25t1.1-.17a5.89,5.89,0,0,0,.91-.16,1.51,1.51,0,0,0,.63-.31.77.77,0,0,0,.23-.6,1.4,1.4,0,0,0-.17-.74,1.19,1.19,0,0,0-.44-.43,1.81,1.81,0,0,0-.61-.2,4.4,4.4,0,0,0-.67-.05,3,3,0,0,0-1.48.34,1.42,1.42,0,0,0-.64,1.28H72.13a3,3,0,0,1,.33-1.33,2.49,2.49,0,0,1,.79-.88,3.34,3.34,0,0,1,1.13-.49,5.89,5.89,0,0,1,1.36-.15,8,8,0,0,1,1.14.08,3,3,0,0,1,1,.34,2,2,0,0,1,.74.71,2.3,2.3,0,0,1,.28,1.19v4.37a3.23,3.23,0,0,0,.06.72q.06.23.39.23a1.71,1.71,0,0,0,.43-.07v1.09Zm-2.27-4.37a1.79,1.79,0,0,1-.69.29q-.43.09-.9.15l-.95.13a3.51,3.51,0,0,0-.86.24,1.54,1.54,0,0,0-.62.47,1.3,1.3,0,0,0-.24.83,1.12,1.12,0,0,0,.14.58,1.14,1.14,0,0,0,.36.39,1.49,1.49,0,0,0,.52.21,2.9,2.9,0,0,0,.63.07,3.3,3.3,0,0,0,1.19-.19,2.46,2.46,0,0,0,.81-.47,1.88,1.88,0,0,0,.47-.62,1.56,1.56,0,0,0,.15-.63v-1.42Z"/><path class="d" d="M86,121.6v1.22H84.34v5.28a1.52,1.52,0,0,0,0,.4.4.4,0,0,0,.16.23.67.67,0,0,0,.32.11,4.28,4.28,0,0,0,.53,0H86v1.23H85A4.9,4.9,0,0,1,84,130a1.36,1.36,0,0,1-.63-.27,1.16,1.16,0,0,1-.35-.56,3.23,3.23,0,0,1-.12-1v-5.42H81.49v-1.23h1.44v-2.54h1.39v2.55H86Z"/><path class="d" d="M91,118.36v4.39h0a2.1,2.1,0,0,1,1.09-1,4.05,4.05,0,0,1,1.63-.32,3.84,3.84,0,0,1,1.72.36,3.5,3.5,0,0,1,1.22,1,4.34,4.34,0,0,1,.73,1.42,5.81,5.81,0,0,1,.25,1.71,6,6,0,0,1-.24,1.71A4,4,0,0,1,96.7,129a3.39,3.39,0,0,1-1.22.95,3.92,3.92,0,0,1-1.7.35,4.25,4.25,0,0,1-.7-.07,3.77,3.77,0,0,1-.76-.21,2.94,2.94,0,0,1-.72-.4A2.24,2.24,0,0,1,91,129h0v1.14H89.61V118.36H91Zm5,6.25a3.12,3.12,0,0,0-.48-1,2.31,2.31,0,0,0-.82-.71,2.47,2.47,0,0,0-1.18-.27,2.31,2.31,0,0,0-2,1,3.07,3.07,0,0,0-.45,1,5,5,0,0,0,0,2.38,3,3,0,0,0,.47,1,2.38,2.38,0,0,0,.83.72,2.61,2.61,0,0,0,1.23.27,2.38,2.38,0,0,0,1.21-.28,2.25,2.25,0,0,0,.78-.74A3.22,3.22,0,0,0,96,127a5.65,5.65,0,0,0,.13-1.22A4.34,4.34,0,0,0,96,124.61Z"/><path class="d" d="M100.1,124.11a4,4,0,0,1,.79-1.41,3.73,3.73,0,0,1,1.3-.95,4.78,4.78,0,0,1,3.57,0,3.77,3.77,0,0,1,1.29.95,4,4,0,0,1,.79,1.41,5.72,5.72,0,0,1,.26,1.75,5.64,5.64,0,0,1-.26,1.74,4,4,0,0,1-.79,1.41,3.69,3.69,0,0,1-1.29.94,4.88,4.88,0,0,1-3.57,0,3.66,3.66,0,0,1-1.3-.94,4,4,0,0,1-.79-1.41,5.59,5.59,0,0,1-.26-1.74A5.66,5.66,0,0,1,100.1,124.11Zm1.42,3.13a2.87,2.87,0,0,0,.57,1,2.45,2.45,0,0,0,.85.62,2.52,2.52,0,0,0,2.9-.62,2.93,2.93,0,0,0,.57-1,4.67,4.67,0,0,0,0-2.75,3,3,0,0,0-.57-1,2.46,2.46,0,0,0-.85-.63,2.58,2.58,0,0,0-2.05,0,2.41,2.41,0,0,0-.85.63,2.94,2.94,0,0,0-.57,1,4.71,4.71,0,0,0,0,2.75Z"/><path class="d" d="M109.72,121.6h1.79l2,3,2.12-3h1.68l-2.93,3.91,3.29,4.59h-1.79l-2.37-3.52-2.37,3.52h-1.69l3.19-4.48Z"/><path class="d" d="M122,128.28v1.83h-1.83v-1.83Z"/><path class="d" d="M125.54,120.07v-1.71h1.39v1.71Zm1.39,1.53v8.5h-1.39v-8.5Z"/><path class="d" d="M131.75,121.6V123h0a3,3,0,0,1,2.76-1.54,3.72,3.72,0,0,1,1.39.23,2.32,2.32,0,0,1,.9.64,2.42,2.42,0,0,1,.49,1,5.31,5.31,0,0,1,.14,1.26v5.59h-1.39v-5.76a1.59,1.59,0,0,0-1.75-1.72,2.83,2.83,0,0,0-1.11.2,2.07,2.07,0,0,0-.78.56,2.38,2.38,0,0,0-.47.85,3.42,3.42,0,0,0-.16,1.06v4.8h-1.39V121.6Z"/><path class="d" d="M145.65,123.08a2.13,2.13,0,0,0-1.42-.44,2.63,2.63,0,0,0-1.27.28,2.29,2.29,0,0,0-.81.74,3.14,3.14,0,0,0-.44,1.06,5.86,5.86,0,0,0-.13,1.24,4.66,4.66,0,0,0,.14,1.15,3.05,3.05,0,0,0,.43,1,2.21,2.21,0,0,0,.77.7,2.31,2.31,0,0,0,1.14.26,2.27,2.27,0,0,0,1.62-.54,2.45,2.45,0,0,0,.72-1.53h1.43a3.92,3.92,0,0,1-1.18,2.43,3.69,3.69,0,0,1-2.58.86,4.39,4.39,0,0,1-1.72-.31,3.31,3.31,0,0,1-1.25-.89,3.83,3.83,0,0,1-.76-1.37,5.77,5.77,0,0,1-.25-1.75,6.21,6.21,0,0,1,.25-1.79,4.13,4.13,0,0,1,.75-1.45,3.5,3.5,0,0,1,1.26-1,4.12,4.12,0,0,1,1.76-.35,5.17,5.17,0,0,1,1.36.17,3.31,3.31,0,0,1,1.12.54,2.9,2.9,0,0,1,.79.91,3.37,3.37,0,0,1,.4,1.31h-1.45A2.14,2.14,0,0,0,145.65,123.08Z"/></svg>