<?xml version="1.0" encoding="utf-8"?>
<!-- Generator: Adobe Illustrator 19.0.1, SVG Export Plug-In . SVG Version: 6.00 Build 0)  -->
<svg version="1.1"
	 id="svg2" xmlns:dc="http://purl.org/dc/elements/1.1/" xmlns:cc="http://creativecommons.org/ns#" xmlns:rdf="http://www.w3.org/1999/02/22-rdf-syntax-ns#" xmlns:svg="http://www.w3.org/2000/svg" xmlns:sodipodi="http://sodipodi.sourceforge.net/DTD/sodipodi-0.dtd" xmlns:inkscape="http://www.inkscape.org/namespaces/inkscape" inkscape:version="0.47 r22583" sodipodi:docname="nsc_logo.svg"
	 xmlns="http://www.w3.org/2000/svg" xmlns:xlink="http://www.w3.org/1999/xlink" x="0px" y="0px" viewBox="16 307.8 628 628"
	 style="enable-background:new 16 307.8 628 628;" xml:space="preserve">
<style type="text/css">
	.st0{opacity:0.96;}
	.st1{fill:#3A3839;}
	.st2{fill:#DC0201;}
	.st3{fill:#047604;}
	.st4{fill:#F0CB1B;}
	.st5{fill:#1E1DC0;}
</style>
<defs>
	
	
		<inkscape:perspective  inkscape:vp_z="744.09448 : 526.18109 : 1" id="perspective10" inkscape:vp_x="0 : 526.18109 : 1" inkscape:vp_y="0 : 1000 : 0" sodipodi:type="inkscape:persp3d" inkscape:persp3d-origin="372.04724 : 350.78739 : 1">
		</inkscape:perspective>
	
		<inkscape:perspective  inkscape:vp_z="1 : 0.5 : 1" id="perspective3629" inkscape:vp_x="0 : 0.5 : 1" inkscape:vp_y="0 : 1000 : 0" sodipodi:type="inkscape:persp3d" inkscape:persp3d-origin="0.5 : 0.33333333 : 1">
		</inkscape:perspective>
	
		<inkscape:perspective  inkscape:vp_z="1 : 0.5 : 1" id="perspective3657" inkscape:vp_x="0 : 0.5 : 1" inkscape:vp_y="0 : 1000 : 0" sodipodi:type="inkscape:persp3d" inkscape:persp3d-origin="0.5 : 0.33333333 : 1">
		</inkscape:perspective>
	
		<inkscape:perspective  inkscape:vp_z="1 : 0.5 : 1" id="perspective3657-4" inkscape:vp_x="0 : 0.5 : 1" inkscape:vp_y="0 : 1000 : 0" sodipodi:type="inkscape:persp3d" inkscape:persp3d-origin="0.5 : 0.33333333 : 1">
		</inkscape:perspective>
	
		<inkscape:perspective  inkscape:vp_z="1 : 0.5 : 1" id="perspective3657-8" inkscape:vp_x="0 : 0.5 : 1" inkscape:vp_y="0 : 1000 : 0" sodipodi:type="inkscape:persp3d" inkscape:persp3d-origin="0.5 : 0.33333333 : 1">
		</inkscape:perspective>
	
		<inkscape:perspective  inkscape:vp_z="1 : 0.5 : 1" id="perspective3732" inkscape:vp_x="0 : 0.5 : 1" inkscape:vp_y="0 : 1000 : 0" sodipodi:type="inkscape:persp3d" inkscape:persp3d-origin="0.5 : 0.33333333 : 1">
		</inkscape:perspective>
</defs>
<sodipodi:namedview  borderopacity="1.0" id="base" pagecolor="#ffffff" inkscape:cx="222.39385" inkscape:zoom="0.92003582" inkscape:cy="747.36413" bordercolor="#666666" showguides="false" showgrid="true" inkscape:pageopacity="0.0" inkscape:pageshadow="2" inkscape:document-units="px" inkscape:current-layer="layer1" inkscape:snap-bbox="true" inkscape:window-width="994" inkscape:window-height="822" inkscape:window-x="10" inkscape:window-y="0" inkscape:window-maximized="0">
	</sodipodi:namedview>
<g id="layer1" inkscape:label="郢晢ｽｬ郢ｧ､郢晢ｽ､郢晢ｽｼ 1" inkscape:groupmode="layer" class="st0">
	<g id="flowRoot2816" transform="translate(38,0)">
	</g>
	<g id="flowRoot2824" transform="matrix(1.9517529,0,0,1.9517529,-438.98837,-459.30269)">
		<path id="path3636" sodipodi:nodetypes="cccccccccccccc" class="st1" d="M433.9,616.1h-26.1V512.6h-9v103.5h-34.4v-4.5h20.9V508.1
			h31.5c3,0,4.5,1.5,4.5,4.5v99h12.6V616.1z"/>
		<path id="path3638" class="st1" d="M491.5,616.1h-61.2v-4.5h12.6v-22.5h13.5v22.5h9v-36h-18c-3,0-4.5-1.5-4.5-4.5v-58.5
			c0-3,1.5-4.5,4.5-4.5h27c3,0,4.5,1.5,4.5,4.5v22.5h-13.5v-22.5h-9v58.5h18c3,0,4.5,1.5,4.5,4.5v36h12.6V616.1z"/>
		<path id="path3640" class="st1" d="M549.2,616.1H488v-4.5h12.6v-99c0-3,1.5-4.5,4.5-4.5h27c3,0,4.5,1.5,4.5,4.5v22.5h-13.5v-22.5
			h-9v99h9v-22.5h13.5v22.5h12.6V616.1z"/>
	</g>
	<g id="g3717">
		
			<path id="path3642" sodipodi:type="arc" sodipodi:cy="552.79535" sodipodi:rx="21.327662" sodipodi:cx="204.63026" sodipodi:ry="21.327662" class="st1" d="
			M274,736.1c0,11.8-9.5,21.3-21.3,21.3c-11.8,0-21.3-9.5-21.3-21.3c0-11.8,9.5-21.3,21.3-21.3C264.5,714.8,274,724.3,274,736.1z"/>
		<path id="rect3644" sodipodi:nodetypes="ccccc" class="st2" d="M229.5,540.3c-4.9-44.6,49.4-44.8,44.6-0.1l-18,166.2h-8.2
			L229.5,540.3L229.5,540.3z"/>
		<path id="rect3644-7" sodipodi:nodetypes="ccccc" class="st3" d="M56.1,757.9c-44.6,4.9-44.8-49.4-0.1-44.6l166.2,18v8.2
			L56.1,757.9z"/>
		<path id="rect3644-3" sodipodi:nodetypes="ccccc" class="st4" d="M71.7,655.1c-40.8-18.7-13-65.4,22.8-38.3l133.4,100.8l-4.2,7
			L71.7,655.1L71.7,655.1z"/>
		<path id="rect3644-0" sodipodi:nodetypes="ccccc" class="st5" d="M137.1,575.6c-26-36.6,21.5-63.1,38.9-21.7L240.8,708l-7.1,4
			L137.1,575.6z"/>
	</g>
</g>
</svg>
