<?xml version="1.0" encoding="utf-8"?>
<!-- Generator: Adobe Illustrator 18.1.1, SVG Export Plug-In . SVG Version: 6.00 Build 0)  -->
<svg version="1.1" id="レイヤー_1" xmlns="http://www.w3.org/2000/svg" xmlns:xlink="http://www.w3.org/1999/xlink" x="0px"
	 y="0px" viewBox="2 270.9 400 70" enable-background="new 2 270.9 400 70" xml:space="preserve">
<g>
	<g>
		<path fill="#5279E7" d="M116.7,275.7h11.8v23.1h25.1v-23.1h11.7v61.1h-11.7V310h-25.1v26.8h-11.8V275.7z"/>
		<path fill="#5279E7" d="M232.7,274.9H244v16.7h6.7v9.6H244v35.6h-11.4v-35.6h-5.9v-9.6h5.9V274.9z"/>
		<path fill="#5279E7" d="M308.2,291.7h11.1v5.6c2.5-2.1,4.8-3.6,6.8-4.4c2-0.8,4.1-1.2,6.2-1.2c4.4,0,8.1,1.5,11.1,4.6
			c2.6,2.6,3.8,6.4,3.8,11.5v29.1h-11.1v-19.3c0-5.3-0.2-8.7-0.7-10.5c-0.5-1.7-1.3-3-2.4-3.9c-1.2-0.9-2.6-1.4-4.3-1.4
			c-2.2,0-4.1,0.8-5.7,2.2c-1.6,1.5-2.7,3.6-3.3,6.2c-0.3,1.4-0.5,4.4-0.5,8.9v17.7h-11.1V291.7z"/>
		<path fill="#5279E7" d="M208.2,291.7v4.5c-3.8-2.8-8.5-4.5-13.5-4.5c-12.5,0-22.6,10.1-22.6,22.6c0,12.5,10.1,22.6,22.6,22.6
			c5.1,0,9.8-1.7,13.5-4.5v4.5h11.3v-45.1H208.2z M194.7,326.7c-6.9,0-12.5-5.6-12.5-12.5c0-6.9,5.6-12.5,12.5-12.5
			c6.9,0,12.5,5.6,12.5,12.5C207.1,321.1,201.5,326.7,194.7,326.7z"/>
		<path fill="#5279E7" d="M390.7,291.7v4.5c-3.8-2.8-8.5-4.5-13.5-4.5c-12.5,0-22.6,10.1-22.6,22.6c0,12.5,10.1,22.6,22.6,22.6
			c5.1,0,9.8-1.7,13.5-4.5v4.5H402v-45.1H390.7z M377.1,326.7c-6.9,0-12.5-5.6-12.5-12.5c0-6.9,5.6-12.5,12.5-12.5
			c6.9,0,12.5,5.6,12.5,12.5C389.6,321.1,384,326.7,377.1,326.7z"/>
		<path fill="#5279E7" d="M278.1,291.8c-6.4,0-11.7,2.2-15.9,6.5c-4.2,4.3-6.3,9.7-6.3,16.3c0,6.4,2.1,11.7,6.3,15.9
			c4.2,4.2,9.7,6.4,16.4,6.4c4.3,0,8-1.3,11.2-2.8c3.1-1.5,7.4-6.4,9.2-10.9l-10.1,0c-2.9,2.8-6.4,4.2-10.4,4.2
			c-3.4,0-6.1-0.9-8.3-2.7c-2.2-1.8-3.5-4.3-4-7.3h34.6l0-2c0-7.1-2.1-12.8-6.4-17.1C290.4,293.9,284.9,291.8,278.1,291.8z
			 M266.7,308.9c1.2-2.6,2.5-4.4,4-5.5c2.3-1.7,4.9-2.5,7.9-2.5c2.8,0,5.2,0.7,7.3,2.2c2.1,1.5,3.5,3.4,4.2,5.7L266.7,308.9
			L266.7,308.9z"/>
	</g>
	<g>
		<g>
			<path fill="#5279E7" d="M29.2,283.2c2.3,0.8,11.8,4.2,12.1,4.3c0.3-0.1,9.9-3.5,12.1-4.3c-2.3-0.8-11.8-4.2-12.1-4.3
				C41,279,31.4,282.4,29.2,283.2z"/>
			<path fill="#5279E7" d="M56.7,283.2c2.3,0.8,11.8,4.2,12.1,4.3c0.3-0.1,9.9-3.5,12.1-4.3c-2.3-0.8-11.8-4.2-12.1-4.3
				C68.5,279,59,282.4,56.7,283.2z"/>
		</g>
		<g>
			<path fill="#C2D7FF" d="M43,293.6c2.3,0.8,11.8,4.2,12.1,4.3c0.3-0.1,9.9-3.5,12.1-4.3c-2.3-0.8-11.8-4.2-12.1-4.3
				C54.8,289.4,45.2,292.8,43,293.6z"/>
			<path fill="#5279E7" d="M70,293.6c2.3,0.8,11.8,4.2,12.1,4.3c0.3-0.1,9.9-3.5,12.1-4.3c-2.3-0.8-11.8-4.2-12.1-4.3
				C81.8,289.4,72.2,292.8,70,293.6z"/>
			<path fill="#5279E7" d="M15.9,293.6c2.3,0.8,11.8,4.2,12.1,4.3c0.3-0.1,9.9-3.5,12.1-4.3c-2.3-0.8-11.8-4.2-12.1-4.3
				C27.7,289.4,18.1,292.8,15.9,293.6z"/>
		</g>
		<path fill="#5279E7" d="M42.9,328.6c2.3,0.8,11.8,4.2,12.1,4.3c0.3-0.1,9.9-3.5,12.1-4.3c-2.3-0.8-11.8-4.2-12.1-4.3
			C54.8,324.4,45.2,327.8,42.9,328.6z"/>
		<g>
			<path fill="#C2D7FF" d="M42.5,314.8c2.3,0.8,11.8,4.2,12.1,4.3c0.3-0.1,9.9-3.5,12.1-4.3c-2.3-0.8-11.8-4.2-12.1-4.3
				C54.4,310.7,44.8,314,42.5,314.8z"/>
			<path fill="#C2D7FF" d="M70.4,314.8c2.3,0.8,11.8,4.2,12.1,4.3c0.3-0.1,9.9-3.5,12.1-4.3c-2.3-0.8-11.8-4.2-12.1-4.3
				C82.3,310.7,72.7,314,70.4,314.8z"/>
			<path fill="#C2D7FF" d="M15.4,314.8c2.3,0.8,11.8,4.2,12.1,4.3c0.3-0.1,9.9-3.5,12.1-4.3c-2.3-0.8-11.8-4.2-12.1-4.3
				C27.3,310.7,17.7,314,15.4,314.8z"/>
		</g>
		<g>
			<path fill="#C2D7FF" d="M29.3,304.1c2.3,0.8,11.8,4.2,12.1,4.3c0.3-0.1,9.9-3.5,12.1-4.3c-2.3-0.8-11.8-4.2-12.1-4.3
				C41.2,299.9,31.6,303.3,29.3,304.1z"/>
			<path fill="#5279E7" d="M56.9,304.1c2.3,0.8,11.8,4.2,12.1,4.3c0.3-0.1,9.9-3.5,12.1-4.3c-2.3-0.8-11.8-4.2-12.1-4.3
				C68.7,299.9,59.1,303.3,56.9,304.1z"/>
			<path fill="#C2D7FF" d="M83.9,304.1c2.3,0.8,11.8,4.2,12.1,4.3c0.3-0.1,9.9-3.5,12.1-4.3c-2.3-0.8-11.8-4.2-12.1-4.3
				C95.7,299.9,86.1,303.3,83.9,304.1z"/>
			<path fill="#C2D7FF" d="M2,304.1c2.3,0.8,11.8,4.2,12.1,4.3c0.3-0.1,9.9-3.5,12.1-4.3c-2.3-0.8-11.8-4.2-12.1-4.3
				C13.8,299.9,4.3,303.3,2,304.1z"/>
		</g>
	</g>
</g>
</svg>
