<?xml version="1.0" encoding="UTF-8"?>
<svg width="180px" height="120px" viewBox="0 0 3000 1400" version="1.1" xmlns="http://www.w3.org/2000/svg" xmlns:xlink="http://www.w3.org/1999/xlink">
    <!-- Generator: Sketch 45.1 (43504) - http://www.bohemiancoding.com/sketch -->
    <title>白ロゴマーク</title>
    <desc>Created with Sketch.</desc>
    <defs></defs>
    <g id="Page-1" stroke="none" stroke-width="1" fill="none" fill-rule="evenodd">
        <g id="白ロゴマーク">
            <g id="FOLIO" transform="translate(450.000000, 457.000000)">
                <path d="M1931.1666,151.7101 C1985.3326,151.7101 2029.2416,195.6241 2029.2416,249.7891 C2029.2416,303.9551 1985.3326,347.8651 1931.1666,347.8651 C1877.0006,347.8651 1833.0916,303.9551 1833.0916,249.7891 C1833.0916,195.6241 1877.0006,151.7101 1931.1666,151.7101 M1931.1666,80.4731 C2033.4996,80.4731 2100.4736,147.4461 2100.4736,249.7891 C2100.4736,352.1221 2033.4996,419.0911 1931.1666,419.0911 C1828.8226,419.0911 1761.8506,352.1221 1761.8506,249.7891 C1761.8506,147.4461 1828.8226,80.4731 1931.1666,80.4731" id="O" fill="#767677"></path>
                <g id="I" transform="translate(1612.000000, 84.000000)">
                    <polygon id="Fill-1" fill="#767677" points="74.5055 330.6661 0.8175 330.6661 0.8175 130.8561 74.5055 57.2191"></polygon>
                    <polyline id="Fill-2" fill="#189AC5" points="74.5055 29.0587 0.8175 102.6907 0.8175 0.8987 74.5055 0.8987"></polyline>
                </g>
                <polygon id="L" fill="#767677" points="1537.5558 414.6661 1334.4198 414.6661 1334.4198 84.8981 1408.1078 84.8981 1408.1078 345.8451 1537.5558 345.8451"></polygon>
                <path d="M1088.2277,347.8654 C1034.0517,347.8654 990.1427,303.9554 990.1427,249.7894 C990.1427,195.6244 1034.0517,151.7104 1088.2277,151.7104 C1142.3937,151.7104 1186.3027,195.6244 1186.3027,249.7894 C1186.3027,303.9554 1142.3937,347.8654 1088.2277,347.8654 M1088.2277,80.4724 C985.8837,80.4724 918.9107,147.4464 918.9107,249.7894 C918.9107,352.1224 985.8837,419.0914 1088.2277,419.0914 C1190.5607,419.0914 1257.5337,352.1224 1257.5337,249.7894 C1257.5337,147.4464 1190.5607,80.4724 1088.2277,80.4724" id="O" fill="#767677"></path>
                <polygon id="F" fill="#767677" points="894.1193 143.5519 751.2083 143.5519 751.2083 203.1679 844.6083 203.1679 844.6083 261.8219 751.2083 261.8219 751.2083 414.6659 677.5193 414.6659 677.5193 84.8989 894.1193 84.8989"></polygon>
                <g id="シンボルロゴ">
                    <path d="M242.4669,9.99999997e-05 C376.5689,9.99999997e-05 485.2749,108.7111 485.2749,242.8231 C485.2749,376.9201 376.5689,485.6311 242.4669,485.6311 C179.3049,485.6311 121.7859,461.5061 78.5959,421.9791 L159.5629,341.0081 C181.9399,359.9221 210.8759,371.3341 242.4669,371.3341 C313.4379,371.3341 370.9769,313.7941 370.9769,242.8231 C370.9769,171.8421 313.4379,114.3031 242.4669,114.3031 C210.8649,114.3031 181.9399,125.7151 159.5629,144.6291 L78.5959,63.6511 C121.7769,24.1261 179.3049,9.99999997e-05 242.4669,9.99999997e-05" id="Fill-8" fill="#767677"></path>
                    <path d="M64.3722,407.8614 C-21.4578,315.2894 -21.4578,170.3534 64.3722,77.7764 L208.1262,221.5354 C219.8402,233.2644 219.8402,252.3824 208.1262,264.1074 L64.3722,407.8614 Z" id="Fill-5" fill="#189AC5"></path>
                </g>
            </g>
        </g>
    </g>
</svg>
