<?xml version="1.0" encoding="UTF-8" standalone="no"?>
<svg
   xmlns:dc="http://purl.org/dc/elements/1.1/"
   xmlns:cc="http://creativecommons.org/ns#"
   xmlns:rdf="http://www.w3.org/1999/02/22-rdf-syntax-ns#"
   xmlns:svg="http://www.w3.org/2000/svg"
   xmlns="http://www.w3.org/2000/svg"
   xmlns:sodipodi="http://sodipodi.sourceforge.net/DTD/sodipodi-0.dtd"
   xmlns:inkscape="http://www.inkscape.org/namespaces/inkscape"
   version="1.1"
   x="0"
   y="0"
   width="200"
   height="220"
   viewBox="0, 0, 612, 792"
   id="svg3054"
   inkscape:version="0.48.4 r9939"
   sodipodi:docname="gitbucket_sticker.svg">
  <metadata
     id="metadata3121">
    <rdf:RDF>
      <cc:Work
         rdf:about="">
        <dc:format>image/svg+xml</dc:format>
        <dc:type
           rdf:resource="http://purl.org/dc/dcmitype/StillImage" />
        <dc:title />
      </cc:Work>
    </rdf:RDF>
  </metadata>
  <defs
     id="defs3119" />
  <sodipodi:namedview
     pagecolor="#ffffff"
     bordercolor="#666666"
     borderopacity="1"
     objecttolerance="10"
     gridtolerance="10"
     guidetolerance="10"
     inkscape:pageopacity="0"
     inkscape:pageshadow="2"
     inkscape:window-width="1049"
     inkscape:window-height="551"
     id="namedview3117"
     showgrid="false"
     inkscape:zoom="0.84281414"
     inkscape:cx="373.761"
     inkscape:cy="590.06511"
     inkscape:window-x="134"
     inkscape:window-y="81"
     inkscape:window-maximized="0"
     inkscape:current-layer="svg3054" />
  <g
     id="g3057"
     transform="matrix(0.96663344,0,0,0.96663344,3.3064977,137.59225)">
    <g
       id="g3059">
      <g
         id="g3061">
        <path
           style="fill:#000000"
           inkscape:connector-curvature="0"
           id="path3063"
           d="m 74.977,128.304 c -17.121,0 -31,-4.477 -31,-10 0,-5.523 13.879,-10 31,-10 17.121,0 31,4.477 31,10 0,5.523 -13.879,10 -31,10 z" />
        <path
           style="fill-opacity:0;stroke:#000000;stroke-width:1"
           inkscape:connector-curvature="0"
           id="path3065"
           d="m 74.977,128.304 c -17.121,0 -31,-4.477 -31,-10 0,-5.523 13.879,-10 31,-10 17.121,0 31,4.477 31,10 0,5.523 -13.879,10 -31,10 z" />
      </g>
      <path
         style="fill:#000000"
         inkscape:connector-curvature="0"
         id="path3067"
         d="m 32.477,50.304 81,0 -7.088,69.25 -62.775,0 -11.137,-69.25 z" />
      <g
         id="g3069">
        <path
           style="fill:#000000"
           inkscape:connector-curvature="0"
           id="path3071"
           d="m 73.977,61.304 c -24.025,0 -43.5,-5.484 -43.5,-12.25 0,-6.765 19.475,-12.25 43.5,-12.25 24.024,0 43.5,5.485 43.5,12.25 0,6.766 -19.476,12.25 -43.5,12.25 z" />
        <path
           style="fill-opacity:0;stroke:#ffffff;stroke-width:5"
           inkscape:connector-curvature="0"
           id="path3073"
           d="m 73.977,61.304 c -24.025,0 -43.5,-5.484 -43.5,-12.25 0,-6.765 19.475,-12.25 43.5,-12.25 24.024,0 43.5,5.485 43.5,12.25 0,6.766 -19.476,12.25 -43.5,12.25 z" />
      </g>
    </g>
    <g
       id="g3075">
      <path
         style="fill:#ffffff"
         inkscape:connector-curvature="0"
         id="path3077"
         d="M 48.326,92.351 81.56,59.117 114.794,92.351 81.56,125.585 48.326,92.351 z" />
      <path
         style="fill-opacity:0;stroke:#ffffff;stroke-width:10;stroke-linejoin:round"
         inkscape:connector-curvature="0"
         id="path3079"
         d="M 48.326,92.351 81.56,59.117 114.794,92.351 81.56,125.585 48.326,92.351 z" />
    </g>
    <path
       style="fill-opacity:0;stroke:#000000;stroke-width:6"
       inkscape:connector-curvature="0"
       id="path3081"
       d="m 67.06,65.804 28.5,26.813" />
    <path
       style="fill:#000000"
       inkscape:connector-curvature="0"
       id="path3083"
       d="m 97.142,99.601 c -3.313,0 -6,-2.686 -6,-6 0,-3.314 2.687,-6 6,-6 3.314,0 6,2.686 6,6 0,3.314 -2.686,6 -6,6 z" />
    <path
       style="fill:#000000"
       inkscape:connector-curvature="0"
       id="path3085"
       d="m 81.06,85.601 c -3.314,0 -6,-2.686 -6,-6 0,-3.314 2.686,-6 6,-6 3.313,0 6,2.686 6,6 0,3.314 -2.687,6 -6,6 z" />
    <path
       style="fill-opacity:0;stroke:#000000;stroke-width:6"
       inkscape:connector-curvature="0"
       id="path3087"
       d="m 81.56,81.538 0,27.626" />
    <path
       style="fill:#000000"
       inkscape:connector-curvature="0"
       id="path3089"
       d="m 81.06,115.304 c -3.314,0 -6,-2.686 -6,-6 0,-3.313 2.686,-6 6,-6 3.313,0 6,2.687 6,6 0,3.314 -2.687,6 -6,6 z" />
  </g>
  <path
     style="fill-opacity:0;stroke:#ffffff;stroke-width:3.86653399"
     inkscape:connector-curvature="0"
     id="path3091"
     d="m 38.093702,245.38347 c 0,0 37.698702,23.89808 75.375178,0" />
  <path
     style="fill:#000000"
     inkscape:connector-curvature="0"
     id="path3093"
     d="m 176.82498,246.87288 q -7.32673,11.50845 -25.30937,11.50845 -29.08598,0 -29.08598,-35.91924 0,-16.31805 8.00251,-25.53401 8.496,-9.71129 24.5894,-9.71129 9.80151,0 16.27387,3.59615 l -1.66274,10.25081 q -7.14813,-3.19291 -13.21722,-3.19291 -18.52031,0 -18.52031,25.04054 0,10.78848 2.29248,16.40828 3.46174,8.45181 12.63167,8.45181 8.27135,0 11.05915,-4.31614 l 0,-14.06975 -11.05915,0 0,-9.21597 24.00569,0 z" />
  <path
     style="fill:#000000"
     inkscape:connector-curvature="0"
     id="path3095"
     d="m 206.31481,257.16788 -14.61112,0 0,-52.55216 14.61112,0 z m 0,-57.81291 -14.61112,0 0,-11.23776 14.61112,0 z" />
  <path
     style="fill:#000000"
     inkscape:connector-curvature="0"
     id="path3097"
     d="m 253.6952,255.10004 q -4.80961,2.51713 -12.90051,2.51713 -7.77786,0 -11.86935,-5.21471 -3.77477,-4.76541 -3.77477,-12.72189 l 0,-25.80469 -6.92348,0 0,-9.26016 6.96768,0 0,-6.65464 14.61112,-8.81087 0,15.46551 10.9229,0 0,9.26016 -10.9229,0 0,26.70327 q 0,4.04544 1.30368,5.79841 1.52832,2.11387 5.39331,2.11387 3.46175,0 5.08029,-0.76416 z" />
  <path
     style="fill:#000000"
     inkscape:connector-curvature="0"
     id="path3105"
     d="m 315.03535,238.30639 q 0,10.16058 -7.50719,15.24087 -6.42816,4.36032 -17.08406,4.36032 l -24.00569,0 0,-69.05068 25.84889,0 q 8.90109,0 13.84695,4.09149 5.39517,4.40451 5.39517,13.12699 0,5.79842 -3.2371,10.02432 -3.37151,4.40635 -8.99132,5.34913 15.73435,2.06783 15.73435,16.85756 z m -17.84637,-29.66968 q 0,-9.84387 -10.79032,-9.84387 l -4.99006,0 0,19.41889 5.08028,0 q 10.7001,0 10.7001,-9.57502 z m 2.38086,28.63669 q 0,-9.93593 -11.50844,-9.93593 l -6.6528,0 0,20.63418 7.46299,0 q 10.69825,0 10.69825,-10.69825 z" />
  <path
     style="fill:#000000"
     inkscape:connector-curvature="0"
     id="path3107"
     d="m 371.2739,257.90758 -13.35164,0 -0.89858,-8.18113 q -6.96951,9.30435 -18.16308,9.30435 -13.17119,0 -13.17119,-16.94779 l 0,-36.7276 14.56509,0 0,35.33369 q 0,7.10393 5.97887,7.10393 6.92347,0 10.51963,-4.99006 l 0,-37.44756 14.5209,0 z" />
  <path
     style="fill:#000000"
     inkscape:connector-curvature="0"
     id="path3109"
     d="m 423.467,254.89512 q -2.33852,1.52833 -7.12604,2.87804 -4.78751,1.34787 -7.93437,1.34787 -27.8265,0 -27.8265,-27.64605 0,-12.99258 7.23651,-20.25302 7.23835,-7.26045 20.23092,-7.26045 9.529,0 14.7437,3.64219 l -1.34786,8.81087 q -4.22591,-3.32732 -11.19358,-3.32732 -13.80093,0 -13.80093,18.65656 0,17.71196 12.13819,17.71196 2.87619,0 7.03396,-1.033 4.15961,-1.03484 6.13723,-2.24828 z" />
  <path
     style="fill:#000000"
     inkscape:connector-curvature="0"
     id="path3111"
     d="m 480.42368,257.90758 -16.85758,0 -12.2726,-21.26392 -4.22591,5.08028 0,16.18364 -14.6995,0 0,-69.05068 14.6995,0 0,38.1215 17.758,-21.62299 13.08096,0 -17.12825,20.05048 z" />
  <path
     style="fill:#000000"
     inkscape:connector-curvature="0"
     id="path3113"
     d="m 532.3019,234.4414 -34.16627,0 q 0,15.46367 13.84697,15.46367 7.23835,0 15.41946,-3.73058 l 2.24829,7.91229 q -8.94712,5.03425 -20.18489,5.03425 -12.67769,0 -19.42072,-7.37277 -6.51839,-7.10209 -6.51839,-19.91421 0,-12.49726 6.20352,-19.91606 6.65279,-7.95648 18.9254,-7.95648 11.86935,0 17.93845,6.96767 5.70818,6.60861 5.70818,18.61238 z m -13.53209,-7.55323 q -0.80835,-14.56508 -10.11454,-14.56508 -9.70945,0 -10.38338,14.56508 z" />
  <path
     style="fill:#000000"
     inkscape:connector-curvature="0"
     id="path3115"
     d="m 572.53726,255.83974 q -4.81144,2.51713 -12.90234,2.51713 -7.77787,0 -11.86751,-5.21471 -3.77661,-4.76542 -3.77661,-12.7219 l 0,-25.80469 -6.92348,0 0,-9.26016 6.96767,0 0,-6.6528 14.61112,-8.81087 0,15.46367 10.92289,0 0,9.26016 -10.92289,0 0,26.70327 q 0,4.04545 1.30368,5.80026 1.52832,2.11203 5.39332,2.11203 3.46174,0 5.08028,-0.76416 z" />
</svg>
