<svg xmlns="http://www.w3.org/2000/svg" viewBox="0 0 240 160"><title>nec</title><path d="M40.758,60.367H53.594c2.945,0,6.407,2.738,7.968,4.26L84.111,89.636V60.367h7.652v39.939H78.353a10.106,10.106,0,0,1-7.484-3.255L48.379,71.987v28.321h-7.62Z" style="fill:#1414a0"/><path d="M200.492,100.577a125.7,125.7,0,0,1-27.769.6,41.03,41.03,0,0,1-15.68-4.147c-6.158-3.2-8.115-10.393-8.04-16.92.069-6.027,1.866-12.429,7.218-15.929,3.519-2.3,7.272-3.086,11.286-3.793,10.9-1.92,21.8-1.49,32.449-.332v5.691c-12.552-2.424-25.79-1.821-30.3,3.942a15.424,15.424,0,0,0-3.189,10.155c0,5.417,1.835,13.615,12.825,15.225,7.189,1.053,14.272.23,21.2-1Z" style="fill:#1414a0"/><path d="M121.944,94.352c1.091.056,18.391.111,24.325,0v5.989c-11.966.468-23.462.657-35.517.158-10.24-.424-12.007-5.579-12.213-10.526V60.367h47.149v5.691H115.205V76.227h27.773v5.549H115.205c-.013,3,.08,6.4.1,7.014C115.473,92.668,117.269,94.111,121.944,94.352Z" style="fill:#1414a0"/><rect x="0.795" y="20.311" width="239.205" height="119.377" style="fill:none"/></svg>