<svg xmlns="http://www.w3.org/2000/svg" xmlns:xlink="http://www.w3.org/1999/xlink" viewBox="0 0 240 160"><defs><clipPath id="a"><rect y="30.271" width="240" height="99.458" style="fill:none"/></clipPath></defs><title>nec</title><g style="clip-path:url(#a)"><path d="M76.356,85.578h7.11c1.627,0,3.543,1.517,4.406,2.355L100.34,101.76V85.578h4.237v22.081H97.154a5.58,5.58,0,0,1-4.123-1.807L80.577,92v15.658H76.356Z" style="fill:#1414a0"/><path d="M164.692,107.806a69.757,69.757,0,0,1-15.35.33,22.762,22.762,0,0,1-8.664-2.294c-3.413-1.772-4.5-5.745-4.456-9.351.035-3.328,1.026-6.875,4-8.808a15.88,15.88,0,0,1,6.231-2.1,63.321,63.321,0,0,1,17.946-.179v3.151c-6.937-1.348-14.259-1.013-16.75,2.169a8.537,8.537,0,0,0-1.773,5.614c0,3,1.025,7.532,7.1,8.415a35.924,35.924,0,0,0,11.719-.556Z" style="fill:#1414a0"/><path d="M121.268,104.373c.6,0,10.157.048,13.438,0v3.3c-6.61.26-12.961.367-19.635.093-5.662-.237-6.64-3.086-6.75-5.82V85.578h26.066v3.144H117.528v5.615H132.9V97.41H117.528c0,1.662.054,3.545.068,3.884.091,2.138,1.087,2.925,3.672,3.079" style="fill:#1414a0"/><path d="M31.7,65.189a8.307,8.307,0,0,1-.275-2.827,8.253,8.253,0,0,1,.275-2.821,3.508,3.508,0,0,1,3.617-2.474,3.53,3.53,0,0,1,3.644,2.474,8.4,8.4,0,0,1,.267,2.821,8.458,8.458,0,0,1-.267,2.827,3.54,3.54,0,0,1-3.644,2.475A3.518,3.518,0,0,1,31.7,65.189Zm5.542-.466a8.144,8.144,0,0,0,.186-2.361,8.012,8.012,0,0,0-.186-2.351,2.027,2.027,0,0,0-3.817,0,8.082,8.082,0,0,0-.179,2.351,8.214,8.214,0,0,0,.179,2.361,2.026,2.026,0,0,0,3.817,0Z" style="fill:#002b62"/><path d="M41.014,67.5a.142.142,0,0,1-.158-.147V60.377a.146.146,0,0,1,.158-.159H42.4a.149.149,0,0,1,.153.159v.611h.018a2.076,2.076,0,0,1,1.879-.934,2.218,2.218,0,0,1,1.535.6c.066.071.088.131.023.217l-.8,1.006a.14.14,0,0,1-.209.03,1.966,1.966,0,0,0-1.074-.349c-.946,0-1.368.678-1.368,1.842v3.945a.145.145,0,0,1-.153.147Z" style="fill:#002b62"/><path d="M46.42,65.659a5.549,5.549,0,0,1-.235-1.8,5.422,5.422,0,0,1,.235-1.79,2.925,2.925,0,0,1,3-2.011,3.174,3.174,0,0,1,2.527,1.136.144.144,0,0,1-.02.208l-.945.83a.14.14,0,0,1-.216-.024,1.645,1.645,0,0,0-1.346-.641,1.338,1.338,0,0,0-1.357.949,4.207,4.207,0,0,0-.153,1.343,4.277,4.277,0,0,0,.153,1.36,1.34,1.34,0,0,0,1.357.94,1.67,1.67,0,0,0,1.346-.633c.057-.081.134-.081.216-.021l.945.843c.074.054.066.125.02.2a3.227,3.227,0,0,1-2.527,1.116A2.939,2.939,0,0,1,46.42,65.659Z" style="fill:#002b62"/><path d="M57.98,67.5a.147.147,0,0,1-.155-.147v-4.2c0-.937-.466-1.589-1.366-1.589a1.4,1.4,0,0,0-1.39,1.589v4.2a.145.145,0,0,1-.153.147H53.525a.137.137,0,0,1-.147-.147V57.387a.137.137,0,0,1,.147-.151h1.392a.144.144,0,0,1,.153.151v3.52h.011A2.245,2.245,0,0,1,57,60.055a2.486,2.486,0,0,1,2.526,2.7v4.594a.151.151,0,0,1-.164.147Z" style="fill:#002b62"/><path d="M61.139,65.643a5.468,5.468,0,0,1-.259-1.788,6,6,0,0,1,.236-1.79,3.216,3.216,0,0,1,5.963,0,6.527,6.527,0,0,1,.243,2.188c0,.084-.046.146-.164.146H62.676c-.065,0-.1.03-.1.1a1.351,1.351,0,0,0,.117.559,1.569,1.569,0,0,0,1.621,1.1,2.193,2.193,0,0,0,1.712-.7.156.156,0,0,1,.223-.029l.9.785a.14.14,0,0,1,.006.21,3.818,3.818,0,0,1-2.989,1.241A2.93,2.93,0,0,1,61.139,65.643Zm4.384-3.218a1.409,1.409,0,0,0-1.418-.94,1.424,1.424,0,0,0-1.43.94,1.755,1.755,0,0,0-.1.619c0,.063.03.09.1.09h2.847c.061,0,.093-.027.093-.09A1.868,1.868,0,0,0,65.523,62.424Z" style="fill:#002b62"/><path d="M68.314,66.512a.159.159,0,0,1,0-.208l.875-.909a.154.154,0,0,1,.208,0,3.325,3.325,0,0,0,2.128.835c.888,0,1.344-.366,1.344-.857,0-.442-.265-.709-1.21-.8L70.87,64.5c-1.474-.158-2.232-.9-2.232-2.145,0-1.406,1.017-2.3,2.829-2.3a4.4,4.4,0,0,1,2.722.89.131.131,0,0,1,.027.209l-.733.891a.14.14,0,0,1-.212.03,3.511,3.511,0,0,0-1.9-.6c-.722,0-1.1.318-1.1.755,0,.422.261.678,1.2.774l.79.076c1.513.141,2.234.932,2.234,2.125,0,1.447-1.057,2.46-3.043,2.46A4.514,4.514,0,0,1,68.314,66.512Z" style="fill:#002b62"/><path d="M78.018,67.591c-1.456,0-2.019-.71-2.019-2.133V61.626c0-.063-.029-.093-.087-.093h-.482a.142.142,0,0,1-.149-.147V60.377a.146.146,0,0,1,.149-.159h.482c.058,0,.087-.03.087-.092V58.137a.143.143,0,0,1,.15-.149h1.393a.14.14,0,0,1,.152.149v1.988c0,.062.027.092.093.092h.976c.082,0,.135.062.135.159v1.009a.133.133,0,0,1-.135.147h-.976c-.065,0-.093.03-.093.093V65.4c0,.518.211.677.681.677h.388a.14.14,0,0,1,.135.157v1.209a.136.136,0,0,1-.135.152Z" style="fill:#002b62"/><path d="M80.58,67.5a.14.14,0,0,1-.147-.147V60.377a.145.145,0,0,1,.147-.159h1.39a.148.148,0,0,1,.15.159v.611h.021a2.092,2.092,0,0,1,1.883-.934,2.2,2.2,0,0,1,1.529.6.15.15,0,0,1,.03.217l-.8,1.006a.149.149,0,0,1-.215.03,1.994,1.994,0,0,0-1.074-.349c-.943,0-1.376.678-1.376,1.842v3.945a.143.143,0,0,1-.15.147Z" style="fill:#002b62"/><path d="M90.437,67.5a.14.14,0,0,1-.152-.147v-.537h-.01a2.394,2.394,0,0,1-2.061.85,2.175,2.175,0,0,1-2.441-2.223c0-1.586,1.119-2.308,2.91-2.308h1.482c.063,0,.087-.027.087-.09V62.7c0-.831-.393-1.215-1.616-1.215a2.562,2.562,0,0,0-1.662.5.127.127,0,0,1-.2-.034l-.57-.991a.15.15,0,0,1,.042-.2,4.287,4.287,0,0,1,2.581-.706c2.218,0,3.033.754,3.033,2.535v4.762a.143.143,0,0,1-.155.147Zm-.186-2.444V64.5c0-.066-.024-.1-.087-.1h-1.2c-1.1,0-1.573.3-1.573.985,0,.6.442.91,1.249.91C89.682,66.294,90.251,65.879,90.251,65.055Z" style="fill:#002b62"/><path d="M95.81,67.591c-1.457,0-2.019-.71-2.019-2.133V61.626c0-.063-.03-.093-.087-.093h-.483a.154.154,0,0,1-.161-.147V60.377a.157.157,0,0,1,.161-.159H93.7c.057,0,.087-.03.087-.092V58.137a.142.142,0,0,1,.148-.149h1.387a.15.15,0,0,1,.161.149v1.988c0,.062.022.092.087.092h.97a.141.141,0,0,1,.144.159v1.009a.136.136,0,0,1-.144.147h-.97c-.065,0-.087.03-.087.093V65.4c0,.518.209.677.673.677h.384a.142.142,0,0,1,.144.157v1.209a.138.138,0,0,1-.144.152Z" style="fill:#002b62"/><path d="M98.373,58.849a.148.148,0,0,1-.153-.157V57.387a.142.142,0,0,1,.153-.151h1.387a.14.14,0,0,1,.153.151v1.305a.146.146,0,0,1-.153.157Zm0,8.649a.143.143,0,0,1-.153-.147V60.377a.147.147,0,0,1,.153-.159h1.387a.145.145,0,0,1,.153.159v6.974a.14.14,0,0,1-.153.147Z" style="fill:#002b62"/><path d="M106.411,67.5a.142.142,0,0,1-.157-.147v-4.2c0-.937-.463-1.589-1.369-1.589a1.408,1.408,0,0,0-1.4,1.589v4.2a.138.138,0,0,1-.144.147h-1.391a.146.146,0,0,1-.152-.147V60.377a.15.15,0,0,1,.152-.159h1.391a.142.142,0,0,1,.144.159v.529h.02a2.248,2.248,0,0,1,1.924-.852,2.482,2.482,0,0,1,2.513,2.7v4.594a.139.139,0,0,1-.148.147Z" style="fill:#002b62"/><path d="M109.548,69.3a.129.129,0,0,1,.023-.208l.883-.9a.149.149,0,0,1,.231,0,2.218,2.218,0,0,0,1.579.686c1.126,0,1.635-.612,1.635-1.735v-.687h-.019a2.084,2.084,0,0,1-1.892.853,2.418,2.418,0,0,1-2.468-1.773,5.531,5.531,0,0,1-.24-1.854,5.444,5.444,0,0,1,.24-1.838,2.409,2.409,0,0,1,2.468-1.785,2.072,2.072,0,0,1,1.892.86h.019v-.537a.142.142,0,0,1,.146-.159h1.393a.147.147,0,0,1,.154.159V67.04a3.055,3.055,0,0,1-3.407,3.341A3.6,3.6,0,0,1,109.548,69.3Zm4.186-4.42a3.523,3.523,0,0,0,.163-1.2,3.6,3.6,0,0,0-.163-1.193,1.259,1.259,0,0,0-1.31-.921,1.244,1.244,0,0,0-1.277.921,3.451,3.451,0,0,0-.174,1.193,3.38,3.38,0,0,0,.174,1.2,1.233,1.233,0,0,0,1.277.931A1.249,1.249,0,0,0,113.734,64.875Z" style="fill:#002b62"/><path d="M123.567,60.065a3.608,3.608,0,0,0-2.363.714.3.3,0,0,0-.085.425l.264.384a.342.342,0,0,0,.466.032,2.436,2.436,0,0,1,1.665-.488c1.431,0,1.665.461,1.665,1.436V63.2h-1.709c-2.363,0-2.853,1.2-2.853,2.226,0,1.381.949,2.219,2.549,2.219a2.907,2.907,0,0,0,2.044-.69v.223a.306.306,0,0,0,.311.318H126a.312.312,0,0,0,.317-.318V62.536C126.319,60.761,125.542,60.065,123.567,60.065ZM125.18,64.2v.987c0,.842-.728,1.391-1.853,1.391-.717,0-1.581-.206-1.581-1.171,0-.6.21-1.207,1.837-1.207Z" style="fill:#eb6e00"/><path d="M135.084,60.065a2.563,2.563,0,0,0-2.007.771V57.543a.3.3,0,0,0-.316-.307h-.509a.3.3,0,0,0-.316.307V67.18a.311.311,0,0,0,.316.318h.509a.306.306,0,0,0,.316-.318v-.311a2.519,2.519,0,0,0,2.007.778,2.469,2.469,0,0,0,2.561-1.783,6.347,6.347,0,0,0,.264-2,6.462,6.462,0,0,0-.264-2.022A2.466,2.466,0,0,0,135.084,60.065Zm-.172,1.1a1.557,1.557,0,0,1,1.646,1.1,5.084,5.084,0,0,1,.188,1.6,4.957,4.957,0,0,1-.188,1.575,1.558,1.558,0,0,1-1.646,1.106,1.581,1.581,0,0,1-1.654-1.106,4.964,4.964,0,0,1-.181-1.575,4.839,4.839,0,0,1,.189-1.6A1.57,1.57,0,0,1,134.911,61.166Z" style="fill:#eb6e00"/><path d="M144,60.584a2.414,2.414,0,0,0-1.528-.519,2.148,2.148,0,0,0-1.741.749v-.281a.317.317,0,0,0-.328-.319h-.5a.316.316,0,0,0-.325.319V67.18a.315.315,0,0,0,.325.318h.5a.316.316,0,0,0,.328-.318V63.338c0-.807.2-2.172,1.544-2.172a1.91,1.91,0,0,1,1.055.33.431.431,0,0,0,.191.049.322.322,0,0,0,.247-.131l.292-.4a.275.275,0,0,0,.07-.241A.29.29,0,0,0,144,60.584Z" style="fill:#eb6e00"/><path d="M146.13,57.236h-.659a.3.3,0,0,0-.315.307v.82a.309.309,0,0,0,.315.315h.659a.31.31,0,0,0,.319-.315v-.82A.3.3,0,0,0,146.13,57.236Z" style="fill:#eb6e00"/><path d="M146.051,60.214h-.5a.318.318,0,0,0-.327.319V67.18a.318.318,0,0,0,.327.318h.5a.31.31,0,0,0,.319-.318V60.533A.311.311,0,0,0,146.051,60.214Z" style="fill:#eb6e00"/><path d="M153.637,60.214h-.5a.311.311,0,0,0-.319.319v.283a2.436,2.436,0,0,0-1.935-.751,2.5,2.5,0,0,0-2.529,1.8,7.661,7.661,0,0,0,0,3.89,2.485,2.485,0,0,0,2.529,1.777,2.409,2.409,0,0,0,1.935-.749v.449c0,1.327-.582,1.943-1.847,1.943a2.068,2.068,0,0,1-1.618-.683.314.314,0,0,0-.458-.044l-.363.307a.312.312,0,0,0-.071.436,3.134,3.134,0,0,0,5.492-1.986V60.533A.307.307,0,0,0,153.637,60.214Zm-2.6,6.228a1.518,1.518,0,0,1-1.577-1.106,4.522,4.522,0,0,1-.2-1.529,4.744,4.744,0,0,1,.2-1.548,1.7,1.7,0,0,1,3.184.011,6.93,6.93,0,0,1,0,3.072A1.543,1.543,0,0,1,151.036,66.442Z" style="fill:#eb6e00"/><path d="M159.266,60.065a2.549,2.549,0,0,0-1.938.771V57.543a.305.305,0,0,0-.322-.307h-.514a.305.305,0,0,0-.317.307V67.18a.313.313,0,0,0,.317.318h.514a.316.316,0,0,0,.322-.318V62.929a1.657,1.657,0,0,1,1.749-1.763c1.138,0,1.688.626,1.688,1.912v4.1a.317.317,0,0,0,.327.318h.5a.307.307,0,0,0,.318-.318V62.888A2.493,2.493,0,0,0,159.266,60.065Z" style="fill:#eb6e00"/><path d="M166.572,60.214h-1.251V58.3a.309.309,0,0,0-.318-.312h-.508a.311.311,0,0,0-.318.312v1.913h-.662a.315.315,0,0,0-.32.319v.408a.311.311,0,0,0,.32.309h.662V65.49c0,1.458.589,2.049,2.015,2.049h.381a.314.314,0,0,0,.33-.31V66.76a.317.317,0,0,0-.33-.318h-.278c-.726,0-.973-.145-.973-.993v-4.2h1.251a.313.313,0,0,0,.33-.309v-.408A.317.317,0,0,0,166.572,60.214Z" style="fill:#eb6e00"/><path d="M171.1,60.065a2.769,2.769,0,0,0-2.8,1.924,6.03,6.03,0,0,0-.227,1.862,5.936,5.936,0,0,0,.227,1.841,2.78,2.78,0,0,0,2.885,1.955,3.352,3.352,0,0,0,2.715-1.23.29.29,0,0,0-.037-.432l-.343-.314a.316.316,0,0,0-.454.052,2.244,2.244,0,0,1-1.837.825,1.782,1.782,0,0,1-1.846-1.239,3.489,3.489,0,0,1-.141-1.106h4.529a.313.313,0,0,0,.341-.305,5.714,5.714,0,0,0-.211-1.908A2.783,2.783,0,0,0,171.1,60.065Zm0,1.068a1.674,1.674,0,0,1,1.732,1.194,3.231,3.231,0,0,1,.129.875h-3.717a3.246,3.246,0,0,1,.131-.875A1.667,1.667,0,0,1,171.1,61.133Z" style="fill:#eb6e00"/><path d="M180.268,60.584a2.407,2.407,0,0,0-1.523-.519,2.177,2.177,0,0,0-1.749.749v-.281a.314.314,0,0,0-.321-.319h-.507a.308.308,0,0,0-.311.319V67.18a.307.307,0,0,0,.311.318h.507A.313.313,0,0,0,177,67.18V63.338c0-.807.2-2.172,1.545-2.172a1.888,1.888,0,0,1,1.057.33.424.424,0,0,0,.188.049.331.331,0,0,0,.255-.131l.293-.4a.279.279,0,0,0,.063-.241A.263.263,0,0,0,180.268,60.584Z" style="fill:#eb6e00"/><path d="M194.108,60.214h-.547a.365.365,0,0,0-.351.258l-1.615,5.076-1.715-5.076a.351.351,0,0,0-.334-.258h-.439a.354.354,0,0,0-.341.258l-1.676,5.076-1.671-5.088a.354.354,0,0,0-.348-.245h-.537a.254.254,0,0,0-.231.11.233.233,0,0,0-.027.253l2.2,6.652a.344.344,0,0,0,.342.27h.452a.335.335,0,0,0,.34-.262l1.72-5.088L191,67.229a.366.366,0,0,0,.356.27h.447a.327.327,0,0,0,.341-.265l2.219-6.65a.284.284,0,0,0-.023-.261A.271.271,0,0,0,194.108,60.214Z" style="fill:#eb6e00"/><path d="M198.318,60.065a2.777,2.777,0,0,0-2.808,1.924,7.144,7.144,0,0,0,0,3.731,3.017,3.017,0,0,0,5.628,0,7.142,7.142,0,0,0,0-3.727A2.775,2.775,0,0,0,198.318,60.065Zm0,6.482a1.7,1.7,0,0,1-1.715-1.174,4.863,4.863,0,0,1-.189-1.523,4.774,4.774,0,0,1,.189-1.508,1.847,1.847,0,0,1,3.441,0,4.556,4.556,0,0,1,.177,1.508,4.641,4.641,0,0,1-.177,1.523A1.694,1.694,0,0,1,198.318,66.547Z" style="fill:#eb6e00"/><path d="M207.485,60.584a2.434,2.434,0,0,0-1.532-.519,2.164,2.164,0,0,0-1.74.749v-.281a.314.314,0,0,0-.319-.319h-.506a.317.317,0,0,0-.32.319V67.18a.316.316,0,0,0,.32.318h.506a.313.313,0,0,0,.319-.318V63.338c0-.807.2-2.172,1.547-2.172a1.9,1.9,0,0,1,1.052.33.436.436,0,0,0,.186.049.329.329,0,0,0,.257-.131l.286-.4a.311.311,0,0,0,.075-.241A.265.265,0,0,0,207.485,60.584Z" style="fill:#eb6e00"/><path d="M210.687,66.442h-.262c-.4,0-.585-.1-.585-.726V57.543a.312.312,0,0,0-.329-.307h-.5a.3.3,0,0,0-.317.307v8.2c0,1.255.491,1.795,1.638,1.795h.352a.311.311,0,0,0,.316-.31V66.76A.314.314,0,0,0,210.687,66.442Z" style="fill:#eb6e00"/><path d="M217.613,57.236h-.508a.3.3,0,0,0-.316.307v3.292a2.572,2.572,0,0,0-2-.771,2.444,2.444,0,0,0-2.574,1.78,5.992,5.992,0,0,0-.257,2.022,5.86,5.86,0,0,0,.257,2,2.447,2.447,0,0,0,2.574,1.783,2.527,2.527,0,0,0,2-.778v.311a.31.31,0,0,0,.316.318h.508a.3.3,0,0,0,.312-.318V57.543A.294.294,0,0,0,217.613,57.236Zm-2.667,9.311a1.574,1.574,0,0,1-1.643-1.106,5.081,5.081,0,0,1-.194-1.575,5.21,5.21,0,0,1,.194-1.6,1.579,1.579,0,0,1,1.643-1.1,1.562,1.562,0,0,1,1.648,1.1,4.562,4.562,0,0,1,.195,1.6,4.443,4.443,0,0,1-.195,1.575A1.558,1.558,0,0,1,214.946,66.547Z" style="fill:#eb6e00"/><path d="M29.453,69a.777.777,0,0,0,.412-1.013L22.692,52.551v-.015a.332.332,0,0,0-.43-.159.345.345,0,0,0-.169.426h0v.008l6.341,15.784a.762.762,0,0,0,1.009.4Z" style="fill:#eb6e00"/></g></svg>