<svg xmlns="http://www.w3.org/2000/svg" viewBox="0 0 240 160"><title>wachi</title><rect width="240" height="160" style="fill:#1e1e1e"/><path d="M96.288,44.58c-.393.131-.426.491-.622.655-.131-.033-.164-.066-.164-.1,0-.066.1-.131.131-.229-.033-.033-.1-.033-.2-.033h-.2c-.066,0-.164,0-.164-.066a.4.4,0,0,0-.131.262h-.622c0-.164.229-.1.262-.2a.3.3,0,0,0-.262-.131c-.164,0-.36.066-.557.066h-.2c-.1,0-.033-.164-.131-.2-.1,0-.2.033-.262.033a2.787,2.787,0,0,1-1.146-.328.36.36,0,0,0-.1.2c0,.2.164.393.2.557a9.1,9.1,0,0,1-1.67.917,1.762,1.762,0,0,0,.852.295c.459-.066.655-.459,1.277-.524l.295-.066c.328.066.393.688.59.95a3.537,3.537,0,0,0,.655.524c.229.2.59.491.917.753.491.328.95.557,1.015,1.277-.622.262-.622.983-1.114,1.179-.164.066-.622.131-.753.164-.131,0-.262.033-.393.033a3.3,3.3,0,0,1-.819-.1,18.587,18.587,0,0,1-4.323-1.834,6.182,6.182,0,0,0-1.343-.721c-.59,0-.819.721-1.245.721h-.1v-.1c0-.36.622-.459.622-.917-.033-.229-.622-.622-.786-.622-.459,0-.622.884-.622,1.67v.2a2.155,2.155,0,0,1,.131.491c-.033.36-.393.622-.393,1.015,0,.066.033.1.033.164a6.25,6.25,0,0,1-1.048.524c-1.408-.459-1.9-1.7-2.686-2.784v-.59c-.557,0-1.212.131-1.834.131a2.327,2.327,0,0,1-.852-.131c.328-1.015,1.408-1.441,1.932-2.293a3.192,3.192,0,0,0-.917-.164,3.89,3.89,0,0,0-1.7.459c-.459.2-.753.459-1.146.459a1.143,1.143,0,0,1-.59-.2A3.4,3.4,0,0,1,75.1,43.3c0-.36-.033-.884-.033-1.376,0-.786.066-1.539.426-1.8a1.733,1.733,0,0,1,.983-.295c.688,0,1.474.328,2.26.328.131,0,.2-.033.328-.033-.2-.36-.459-.393-.622-.655a10.161,10.161,0,0,1-.721-2.129,3.806,3.806,0,0,1,1.048-1.932c-.066-.033-.1-.066-.164-.066-.131,0-.229.229-.426.295-.622.2-1.376.2-1.7.753h-.066c-.524,0-.917.917-1.572.95H74.8c-.852,0-2.1-1.6-2.293-2.456-.033-.229,0-.557-.066-.852a8.191,8.191,0,0,1-.2-1.245,1.917,1.917,0,0,1,.066-.426c.2-.033.2-.295.229-.524.262-.36.655-.229,1.343-.295a2.585,2.585,0,0,1,.426-.1h.066c.2,0,.393.2.59.2h.066a2.412,2.412,0,0,0,.459-.131,2.648,2.648,0,0,1,.491-.033,1.228,1.228,0,0,0,.36-.033c.2-.033.36-.2.557-.229.655-.131,1.408.033,1.834-.426a6.484,6.484,0,0,1-.884-2.391c0-.2.2-.2.229-.328a.639.639,0,0,1-.033-.229,1.96,1.96,0,0,1,.426-.983c.229-.524.491-1.245,1.015-1.441a1.393,1.393,0,0,1,.36-.066c.426,0,.852.2,1.31.229.36.524,1.081.59,1.67.786.852-.164,1.015-1.277,1.9-1.277.066,0,.131.033.2.033.622.1.721.819,1.146,1.245a8.03,8.03,0,0,1,.884-.066c.491,0,.852.1,1.048.459v.066c0,.262.131.328.229.491-.066.164-.1.2-.1.295a.178.178,0,0,0,.1.164,3.931,3.931,0,0,0-.426,1.015h-.459a2.259,2.259,0,0,0-1.539.393c-.033.2.033.229-.164.328a.528.528,0,0,0,.295.1c.36,0,.655-.393,1.081-.459.066,0,.131-.033.2-.033.229,0,.491.131.786.131a1.164,1.164,0,0,0,.328-.066c.328-.819.426-1.834,1.015-2.391A1.318,1.318,0,0,1,90.36,26.3a2.062,2.062,0,0,1,1.8,2.031c-.033.2-.2.2-.2.36.066.328.131.59.2.819-.655,1.965-.59,4.683-.983,6.91-.59.066-.917.59-1.441.59-.066,0-.131-.033-.2-.033-.229-.2-.2-.459-.262-.688-.2-.524-.622-.884-.753-1.408-.131-.328,0-.721-.2-1.081-.066-.033-.1-.066-.164-.066a.351.351,0,0,0-.2.066.1.1,0,0,1-.033-.066c0-.066.033-.131.033-.2v-.066a.639.639,0,0,0-.229-.033c-.295,0-.524.2-.786.229-.066,0-.066,0-.066-.033a1.158,1.158,0,0,0,.033-.2v-.066a.487.487,0,0,0-.2-.033,3.479,3.479,0,0,0-.622.131c.033.131.131.2.131.229s-.033.066-.066.131c1.245.393,3.046,1.736,3.046,3.373a1.893,1.893,0,0,1-.983,1.539c.164.688.557,1.277,1.31,1.277h.2c.1.033.164.164.2.2H90.1c.2,0,.459.033.655.033a.662.662,0,0,0,.59-.229c.2,0,.328.033.524.033.655,0,1.376-.1,2-.1a6.125,6.125,0,0,1,1.114.1,3.146,3.146,0,0,0-1.245-.59c-.262-.033-.557.033-.688-.164a6.391,6.391,0,0,1-.295-1.376,34,34,0,0,1-.622-4.945c0-.2.033-.459.033-.655.1-1.015.36-2.129.36-3.046v-.2c0-.131.2-.066.2-.262v-.033c-.066-.066-.2-.164-.2-.229a.3.3,0,0,1,.033-.164l.066-.033c.131,0,.033.229.131.229h.033a.353.353,0,0,0,.066-.229c0-.131-.1-.229-.229-.328.066-.2.2-.033.262-.2,0-.131-.033-.2-.033-.328,0-.426.131-.721.426-.819-.033-.1-.066-.1-.1-.1h-.066c-.066,0-.1,0-.131-.1,0-.2.295-.131.36-.262-.066-.2-.262-.393-.262-.557v-.066a.284.284,0,0,1,.229-.164.245.245,0,0,1,.164.033c.2-.2.229-.622.524-.753a.283.283,0,0,0-.2-.1c-.164,0-.328.36-.36.655h-.033c-.164,0-.131-.2-.229-.229a.1.1,0,0,0-.066-.033c-.1,0-.2.2-.262.2-.033,0-.033-.033-.066-.066a.553.553,0,0,1-.066-.164c0-.229.557-.164.721-.229a1.625,1.625,0,0,1-.1-.426c0-.2.1-.393.295-.393a.436.436,0,0,1,.262.1c0,.033.033.066.033.1,0,.1-.066.131-.066.2v.066H93.9c.1,0,.2-.262.328-.328.164.033.131.262.262.328l.524-.164a1.085,1.085,0,0,1,.131.491,1.131,1.131,0,0,1-.1.426h.1c.36,0,.295-.753.753-.753h.033c0,.033.033.1.033.131,0,.295-.262.688-.262.983,0,.164.1.262.262.36.36-.033.295-.524.36-.688.2,0,.2.1.2.2a1.164,1.164,0,0,1-.066.328.18.18,0,0,0,.164.1c.1,0,.2-.033.262-.033a.466.466,0,0,1,.2.066.457.457,0,0,0-.131.295c0,.295.262.59.295.786a1.114,1.114,0,0,1,.033.328c0,.622-.295,1.245-.295,1.867v.066c0,.328.066.655.066.95a.7.7,0,0,1-.295.655,12.16,12.16,0,0,0,.917,4.52.559.559,0,0,0-.164.36,2.048,2.048,0,0,0,.36.786,7.362,7.362,0,0,1,.557,1.474,5.61,5.61,0,0,1,.426,1.441v.066a1.4,1.4,0,0,1-.983,1.015,1.469,1.469,0,0,1-.36.033c-.459,0-.983-.1-1.408-.1a1.814,1.814,0,0,0-.59.066c.066.426.622.36.786.688.2.295.066.721.36.95a3.193,3.193,0,0,1-.2.459,1.357,1.357,0,0,1,.066.491c0,.295-.1.622-.131,1.048a.12.12,0,0,1-.1.033c-.066,0-.1-.033-.2-.033a.2.2,0,0,0-.131.033.12.12,0,0,0-.033.1c0,.1.2.131.2.229v.131ZM82.6,37.6a.907.907,0,0,0-.295-.033c-1.081,0-1.212,1.212-1.769,1.9-.2.229-.459.262-.557.622H82.14c.36,0,.721,0,1.081-.033-.033-.393-.524-.59-.622-.95a1.594,1.594,0,0,1-.033-.393c0-.328.033-.622.033-.917v-.2Zm.2-3.5a4.857,4.857,0,0,0-1.7.655c-.164.033-.36-.033-.459.2a2.974,2.974,0,0,0,.753.1,3.851,3.851,0,0,0,.884-.1c.328-.1.753-.36.753-.655,0-.066-.033-.1-.033-.164C82.926,34.132,82.86,34.1,82.795,34.1Zm.164-4.651c-.033,0-.066.033-.131.066-.131.1-1.277.622-1.277.753.066,0,.2.033.328.033.557,0,1.408-.131,1.474-.491-.164-.164-.262-.36-.393-.36Zm4.913,16.146c.557-.131.622-.721.917-1.114-.131-.033-.164-.1-.164-.131,0-.066.066-.131.066-.2v-.033a2.015,2.015,0,0,1-.622.066h-.622a.936.936,0,0,0-.622.2c-.2-.033-.295-.2-.459-.229v.033c0,.328-.36.229-.557.328-.295.36-.2.721-.622,1.015a13.679,13.679,0,0,1-1.343.622c0,.524.262.655.655.655a5.417,5.417,0,0,0,1.048-.229c0-.2-.164-.295-.2-.524a1.156,1.156,0,0,1,.917-.59c.066,0,.164-.033.2-.033.393,0,.819.164,1.146.164h.262ZM84.989,40.06c.1-.622.884-1.015.884-1.6v-.033c-.033-.557-.786-.884-1.081-1.277-.033.491-.426.917-.491,1.376v.066c0,.164.066.295.066.459v.1c-.066.295-.36.491-.36.786v.1a.709.709,0,0,0,.393.066h.59Zm.753-6.452c-.36,0-.688.1-.753.36a.557.557,0,0,0,.229.033,3.279,3.279,0,0,0,1.048-.262.831.831,0,0,0-.524-.131ZM86.3,44.94a.087.087,0,0,1-.1.1c-.1,0-.164-.033-.164-.1v-.033a1.158,1.158,0,0,0,.2-.033C86.266,44.874,86.3,44.874,86.3,44.94Zm2.391-1.834c0-.1-.131-.066-.2-.1a.12.12,0,0,0-.033.1c0,.066.066.1.131.1a.087.087,0,0,0,.1-.1Zm.622-.393c-.066,0-.066.033-.131.033h-.066c-.066-.066-.131-.164-.2-.164a.12.12,0,0,0-.1.033v.131a.417.417,0,0,0,.36.164.577.577,0,0,0,.491-.262c-.1-.033-.164-.1-.262-.1h-.066a.12.12,0,0,0-.033.1Zm1.572-.1c-.2,0-.36-.033-.491-.033a.29.29,0,0,0-.328.2.27.27,0,0,0,.262.164c.131,0,.229-.033.36-.033a.553.553,0,0,1,.328.1c.066-.066.1-.1.1-.164a.276.276,0,0,0-.131-.229h-.1Zm1.245,1.31c-.066,0-.1-.066-.164-.066a.1.1,0,0,0-.066.033c0,.033-.033.033-.033.066,0,.066.066.066.131.066s.131-.033.131-.1ZM43.3,35.475c-.033.491-.2,1.146-.295,1.736-.2.884-.295,1.67-.721,2a1.859,1.859,0,0,1-1.114.328,4.53,4.53,0,0,1-2.718-1.048,18.9,18.9,0,0,1-1.277-1.9,6.487,6.487,0,0,1-1.245-2.522,1.867,1.867,0,0,1-.033-.426c0-1.769,1.343-2.424,2-3.865.95-.131,1.539-1.245,2.718-1.343h.2c.328,0,.688.066,1.114.1A9.262,9.262,0,0,1,43.362,32.2c0,.426-.131.983-.131,1.539,0,.524.1,1.048.1,1.6v.131Zm24.334,9.007c.033.2.131.262.131.393a.487.487,0,0,1-.033.2c.917,1.277,1.474,2.915,2.293,4.29a2.16,2.16,0,0,1-1.736.917,5.094,5.094,0,0,1-3.308-1.9,5.469,5.469,0,0,1-.655-1.769A.841.841,0,0,1,64,45.988a1.116,1.116,0,0,1,.983-1.048h.36c.2,0,.36-.033.393-.2H58.493a7.942,7.942,0,0,0-1.572.1.618.618,0,0,0,.491.2c.295,0,.622-.1.884-.1a.639.639,0,0,1,.229.033c-.328.328-1.146.2-1.769.295-1.114.557-2.849.426-3.865,1.114.557.393.622,1.048,1.015,1.8.2.36.491.655.491,1.015,0,1.015-1.048,1.179-1.507,1.932-.852-.328-2.063-.524-2.686-1.31a9.17,9.17,0,0,1-1.146-2.26V47.3a2.107,2.107,0,0,1,1.015-1.867h1.31c-.033-.557-.721-.819-.884-1.441-.2-.622-.033-1.245-.262-1.932a10.02,10.02,0,0,1-1.474.2,1.348,1.348,0,0,1-1.212-.491v.295a13.294,13.294,0,0,0,.262,2.227,14.672,14.672,0,0,1,.36,2.26v.229a2.658,2.658,0,0,1-2.227,2h-.066a3.668,3.668,0,0,1-.753-.2c-.524-.033-.884.033-1.212-.229-.426-.328-1.048-1.114-1.6-1.507a4.144,4.144,0,0,0-1.9-.557H39.367a5.4,5.4,0,0,1-1.179-.131c.1-.819.852-.95,1.343-1.343.524-.426.721-1.146,1.212-1.736.2-.295.524-.524.688-.819a13.666,13.666,0,0,0,2.129-5.109,23.313,23.313,0,0,0,.36-3.766v-.655c0-.229-.033-.491-.033-.688a.955.955,0,0,1,.295-.819c0-.295-.295-.328-.328-.622v-.033c0-.2.131-.2.229-.328-.033-.131-.262-.131-.262-.328,0-1.376-.36-3.079-.36-4.487a4.067,4.067,0,0,1,.229-1.572,3.334,3.334,0,0,1,1.834-.622,1.4,1.4,0,0,1,1.179.557,9.072,9.072,0,0,1,.884,2.162c0,.1.033.262.033.36,0,1.015-.688,1.834-.819,3.079v.95a8.892,8.892,0,0,1-.033.95c-.066,1.245-.2,2.424-.2,3.406a5.084,5.084,0,0,0,.2,1.67c2.62.066,3.635,1.8,5.207,2.915a5.539,5.539,0,0,1-.229,1.474,13.118,13.118,0,0,0,2.063.131c.884,0,1.769-.033,2.489-.066-.328-.393-1.179-.262-1.212-.95.59-.622,2.129-.262,2.718-.884a.539.539,0,0,0-.524-.328.961.961,0,0,0-.622.229c-.2.1-.36.36-.557.393a3.879,3.879,0,0,1-.852.066,4.633,4.633,0,0,1-.983-.36A24.309,24.309,0,0,1,52.3,37.473a3.239,3.239,0,0,1-1.114-1.179c-.36-.622-.753-.852-.819-1.67a.813.813,0,0,0-.655.262c-.819-.95-2.489-1.245-2.555-2.915v-.229a2.739,2.739,0,0,1,2.129-2.686,3.3,3.3,0,0,1,2.718,2.882.355.355,0,0,0,.2.033,1.421,1.421,0,0,0,.524-.229c-.131-.59-.655-.917-.917-1.572-.229-.524-.131-1.114-.328-1.638a4.744,4.744,0,0,1-.557-1.67,1.122,1.122,0,0,1,.131-.59c.295-.524,1.474-.622,2.718-.622.852,0,1.638.033,2.293.066.524.033,1.015.2,1.441.2.393,0,.655-.131.655-.622a1.343,1.343,0,0,0-.033-.36c-.066-.2-.426-.066-.557-.2,0-.262.328-.1.328-.393v-.033c-.688-.1-.95-.753-1.638-.753a1.961,1.961,0,0,0-.393.066v-.066c0-.229.229-.131.229-.36a.648.648,0,0,0-.36-.066c-.295,0-.622.1-.917.1-.262,0-.491-.1-.524-.524-.262,0-.36.2-.655.2a4.544,4.544,0,0,0-1.31-.688c-.328-.1-1.376-.36-1.441-.655v-.033c0-.688,1.8-.622,2.424-.655.393-.033.95-.229,1.441-.328a6.926,6.926,0,0,1,.983-.524h.36c1.146-.36,2.587-1.441,4.258-1.441.131,0,.295.033.426.033a3.8,3.8,0,0,1,2.129.983,2.828,2.828,0,0,1,.328.524,10.193,10.193,0,0,0,.917.753,5.5,5.5,0,0,1,1.31,2.522,2.169,2.169,0,0,1,.033.491c0,.819-.328,1.539-.917,1.638-.066,0-.131.033-.229.033-.622,0-1.146-.524-1.9-.524a2.678,2.678,0,0,0-.688.1c0,.066,0,.131-.033.131a.572.572,0,0,0,.655.655c.328,0,.688-.1,1.015-.1h.066c.655.033,1.212.1,1.769.1h.36a7.16,7.16,0,0,0,1.179-.1c.262-.033.524-.229.721-.262.1,0,.2-.033.262-.033.557,0,.983.262,1.507.295.557.131.426.917.557,1.539-.1.131-.393.066-.491.2.033.229.524.033.524.295v.066a3.511,3.511,0,0,1-2.129,1.179,1.616,1.616,0,0,1-.753-.2c.066-.262.262-.295.491-.295.1,0,.229.033.328.033a.907.907,0,0,0,.426-.1c-.2-.229-.557-.229-.688-.426a.355.355,0,0,1-.2.033c-.131,0-.36-.033-.557-.033h-.131c-.131,0-.262.131-.36.131a4.176,4.176,0,0,1-.655.033h-.655a2.055,2.055,0,0,0-1.343.295c.36.262.983.1,1.31.328.229,0,.262-.131.491-.2a1.164,1.164,0,0,0,.328.066c.229,0,.36-.2.622-.2a1.164,1.164,0,0,1,.328.066,1.911,1.911,0,0,1-.721.426,4.255,4.255,0,0,0-.491-.1,8.3,8.3,0,0,1-.95.131A1.351,1.351,0,0,1,64,28.957h-.033c-.262,0-.131.328-.328.36-.721.1-1.539,0-1.736.59.131.2.655.066.819.262-.491.426-1.834-.066-1.834.819v.2a.5.5,0,0,0,.328.2,2.149,2.149,0,0,0,.688-.262,6.909,6.909,0,0,0,1.245-.328c.491-.229.721-.95,1.245-1.015h.2c.36,0,.491.2.721.229h.131c.2,0,.328-.033.491-.033h.066c1.638.033,3.472,1.376,3.7,2.784a3,3,0,0,1,.033.524c0,2.194-2.26,2.915-2.358,5.011-.295.131-.655.229-.721.557a.844.844,0,0,0-.426-.1H65.9c-.295,0-.557-.1-.819-.1a1.1,1.1,0,0,0-.491.131c-.262-.033-.229-.36-.393-.557a8.1,8.1,0,0,0-1.965-.36,1.514,1.514,0,0,0-1.114.328.39.39,0,0,0,.36.131h.393a.4.4,0,0,1,.393.2,3.609,3.609,0,0,1,.59-.066,2.171,2.171,0,0,1,2.1,1.277,18.1,18.1,0,0,1-2.129.917c.033.2.2.229.328.229a4.212,4.212,0,0,0,.622-.131c.59-.1,1.343-.2,2.1-.295a7.889,7.889,0,0,1,1.212-.229.743.743,0,0,1,.59.229c0,.36-.328.36-.426.655.229.655.393,1.31.983,1.6-.066.328-.393.36-.491.59a1.509,1.509,0,0,1,.491,1.277.12.12,0,0,1-.1.033c-.131,0-.295-.131-.426-.131h-.066ZM54.662,47.036c.066-.36.36-.59.59-.884h.131c.229,0,.557-.033.655-.2,2.391.1,3.111,1.9,3.6,3.963a2.52,2.52,0,0,1-1.6.557,3.645,3.645,0,0,1-2.456-.95,6.242,6.242,0,0,1-.917-2.293Zm1.245-23.319a.224.224,0,0,1-.229.229.17.17,0,0,1-.131-.066c0-.2.2-.131.36-.2Zm1.539,10.218a6.2,6.2,0,0,0-1.8.655c.393.655.426,1.769,1.179,2.1a2.906,2.906,0,0,0-.066-.491,2.282,2.282,0,0,1-.491-1.277v-.131a.914.914,0,0,1,.753-.426c.066,0,.131.033.229.033a1.552,1.552,0,0,1,1.048.622,2.5,2.5,0,0,0,.033-.557c0-.131-.033-.295-.033-.36a3.312,3.312,0,0,0-.753-.131h-.1Zm-.622-1.867a1.622,1.622,0,0,0,.884-.229.56.56,0,0,0,.393-.557,1.2,1.2,0,0,0-.491-.1,1.372,1.372,0,0,0-.884.295,1.029,1.029,0,0,0-.524.59Zm3.9,16.441c-.2,0-.229.1-.393.1h-.1c-.066-.688-.622-1.212-.622-2a1.644,1.644,0,0,1,.066-.393,4.757,4.757,0,0,1,1.015-.95,1.047,1.047,0,0,1,.491-.066,7.486,7.486,0,0,1,.819.066c.721,1.048,1.6,1.965,1.6,3.766a2.618,2.618,0,0,1-.426.426,1.69,1.69,0,0,0-.36-.066c-.295,0-.59.066-.819.066a.813.813,0,0,1-.295-.033c-.393-.1-.491-.721-.884-.917ZM60.983,36c.2,0,.229-.2.229-.36-.2-.229-.2-.622-.295-1.146v.36a1.12,1.12,0,0,1-.033.36c0,.033-.033.2-.033.328,0,.1.033.262.033.328Zm1.408-3.079a2.965,2.965,0,0,0-1.146.393l-.328.262V34a.969.969,0,0,0,.066.328c.295-.328.491-.95,1.114-1.048h.131c.229,0,.426.033.655.033a.922.922,0,0,0,.262-.033c0-.2-.1-.295-.131-.491Zm.36,2.948a2.223,2.223,0,0,0,.229-.655.12.12,0,0,0-.033-.1,7.312,7.312,0,0,0-.721.688.507.507,0,0,0,.262.066Zm.819-7.238c0-.033-.1-.066-.229-.066-.1,0-.229.033-.229.1v.1c0,.033.1.066.229.066.1,0,.229-.033.229-.131Zm.917.917c.033-.033.066-.066.1-.066.066,0,.131.066.262.066,0,.131-.2.131-.36.131Zm2.293,14.967c0,.295.2.426.491.426A.8.8,0,0,0,66.779,44.514Zm45.753,6.059a.12.12,0,0,0,.033.1c-.229,0-.262.2-.426.262a.465.465,0,0,0-.2-.066c-.2,0-.393.229-.491.328a2.23,2.23,0,0,0-1.212.59,2.9,2.9,0,0,0-.557.262c-.066.066-.1.164-.164.229-.131.1-.328.131-.491.229-.131.1-.2.262-.295.36-.262.229-.557.1-.852.295v.033c0,.131.164.164.164.229,0,.033,0,.033-.033.066a1.936,1.936,0,0,1-.459-.2c-.655,0-1.114-.229-1.8-.229h-.066c-.393.033-.753.033-1.114.033a3.235,3.235,0,0,1-2-.459,5.4,5.4,0,0,1-1.31-2.325,4.889,4.889,0,0,1-.491-1.31,3.088,3.088,0,0,1,.59-1.376,4.743,4.743,0,0,1,.557-.59c.917-.786,2-1.474,2.817-2.227-.131-.622-.852-.786-1.343-1.146a2.659,2.659,0,0,1-.295-.328c-.131-.655-.2-1.867-.262-2.686,0-.066-.033-.131-.033-.229a1.737,1.737,0,0,1,.328-1.048.721.721,0,0,1,.262-.033c.59,0,1.146.459,1.67.622a5.057,5.057,0,0,1,2.522,2.293,4.076,4.076,0,0,0,1.376-.786c.426-.131.622-.459,1.048-.59.164-.033.295-.131.393-.131.393.033.459.59.786.753.131.655.655.983.753,1.638,0,.066.033.1.033.131,0,.655-.655.884-1.114,1.114a7.429,7.429,0,0,0-1.015.557,21.463,21.463,0,0,0-1.8,1.343.473.473,0,0,1-.229-.066c-.59.131-.917.557-1.539.655a10.062,10.062,0,0,1-1.146.786c0,.1-.033.131-.033.262v.033a1.472,1.472,0,0,0-.491.36c.033.033.066.033.131.033s.1,0,.131.033v.033c0,.1-.131.066-.131.164v.033c.852.229,1.9.328,2.784.524,1.146-.491,2.194-.852,3.242-1.408a.12.12,0,0,0,.1.033c.033,0,.066-.033.131-.033h.033v.066c0,.131-.1.131-.1.262v.033a.2.2,0,0,1,.131-.033c.2,0,.426.229.655.229h.066c.1.066.131.2.229.262a.465.465,0,0,0,.066-.2c0-.131-.066-.262-.066-.426v-.066c.033-.1.1-.1.131-.164v-.033c0-.066-.066-.1-.066-.131s.033-.033.066-.033c.1,0,.131.033.131.066s-.033.1-.033.131a1.011,1.011,0,0,1,.229.459.3.3,0,0,0-.1.229.258.258,0,0,0,.262.262h.066c.033.033.033.033.033.066,0,.066-.1.1-.1.2.033.066.131.066.2.1a.639.639,0,0,0-.033.229.372.372,0,0,0,.1.262c-.164.2-.295.36-.426.524h-.033c-.066,0-.066-.066-.1-.066l-.033.033a.12.12,0,0,0-.033.1,2.087,2.087,0,0,0,.066.229l.033.033c.033,0,.1-.033.131-.033a.032.032,0,0,1,.033.033.12.12,0,0,1,.033.1v.131Zm-1.179-3.439a.3.3,0,0,1,.229-.1c.131,0,.262.066.262.2a.12.12,0,0,1-.033.1.032.032,0,0,1-.033.033c-.033,0-.1-.033-.131-.033s-.066.033-.066.1c-.066-.033-.164-.033-.229-.066C111.386,47.3,111.354,47.233,111.354,47.134Zm1.245,2.456c0-.1-.066-.262-.066-.393a.12.12,0,0,1,.033-.1c-.131.033-.262.066-.262.229.066.066.131.1.131.2,0,.033-.033.033-.033.066a.3.3,0,0,0,.164.033h.033Zm.1.688a.248.248,0,0,1-.033-.131.317.317,0,0,1,.295-.295c.066,0,.131.066.2.131A.754.754,0,0,1,112.7,50.278Zm24.269-20.568c-.524.1-.655.753-1.048,1.015-.36.229-.95.2-.95.852-.655.229-1.015.884-1.638,1.245a1.418,1.418,0,0,0,.033.164c0,.36-.36.426-.36.688,0,.033.033.1.033.131-.229.131-.524.2-.524.557a.339.339,0,0,1,.033.131c.753.2,1.867-.164,2.227.59a1.156,1.156,0,0,0-.1.459,5.908,5.908,0,0,0,.524,1.638,7.136,7.136,0,0,1,.262,1.867,6.394,6.394,0,0,1-.066.753c.426.328.2,1.015.36,1.376a4.094,4.094,0,0,1-2,.524,3.439,3.439,0,0,1-.786-.1c-.1.066-.2.2-.328.2-.2,0-.295-.1-.36-.1-2.26.622-4.618.884-6.124,2.194-.262.262-.622.688-.95.753a1.731,1.731,0,0,1-.393.033,2.8,2.8,0,0,1-2.325-1.834,9.5,9.5,0,0,1-.426-3.046c0-2.194.393-4.651.426-6.386-.1-.164-.36-.131-.459-.262-.2-.622-.622-1.015-.753-1.638a.979.979,0,0,0-.557.917c-.59.2-1.6-.1-1.769.622a2.177,2.177,0,0,1,.1.688v.2a.819.819,0,0,0,.459.131c.524,0,1.015-.393,1.539-.393.066,0,.164.033.2.033,0,.131-.033.262-.033.393a.371.371,0,0,0,.229.393c-.2.229-.459.459-.459.753a.528.528,0,0,0,.1.295c-.229.2-.59.295-.753.557a.2.2,0,0,0,.131.033c.164,0,.262-.131.426-.2,0,.1-.164.164-.164.295a.323.323,0,0,0,.066.2c-.328.2-.491.622-1.015.688a.12.12,0,0,0-.033.1c0,.131.164.164.164.229,0,.033,0,.033-.033.066-.852.622-1.9,1.048-2.325,2.162-.131.295-.393.36-.557.655v.1a1.758,1.758,0,0,1-.655,1.31,1.114,1.114,0,0,1-.328.033c-.819,0-1.277-.557-1.834-1.081a3.621,3.621,0,0,1-1.441-2.849c0-.131.033-.262.033-.393a12.164,12.164,0,0,0,.2-1.408c.459-.066.753-.655,1.212-.819a.3.3,0,0,1,.164-.033c.131,0,.2.033.295.033h.066c.328-.066.557-.36.95-.36h.131v-1.6a1.343,1.343,0,0,0-.36-.033c-.753,0-1.245.491-1.834.491a1.006,1.006,0,0,1-.491-.131,2.423,2.423,0,0,1-.688-.622c-.753-1.048-1.081-3.406-1.277-5.371a11.088,11.088,0,0,1-.131-1.212,1.26,1.26,0,0,1,.262-.852,2.288,2.288,0,0,0,.393-.1c.262-.655,1.048-.721,1.867-.721h.524a3.343,3.343,0,0,0,1.179-.131,21.486,21.486,0,0,1,.459-3.472c.262-.2.36-.688.753-.852a2.5,2.5,0,0,1,1.114.2,4.452,4.452,0,0,1,2.293,3.275c0,.2-.1.426-.1.655v.164a1.248,1.248,0,0,0,.557.131h.1a.967.967,0,0,1,.426.066c.753.328.786,1.376,1.179,2.129.2-.033.393-.131.655-.2a1.016,1.016,0,0,0,.2-.753V25.65a1.817,1.817,0,0,1,.1-.557c.2-.524.786-.622,1.539-.622.393.229.524.884.884,1.146a5.469,5.469,0,0,0,2-.819c.1-1.245,0-2.653.524-3.472.2,0,.229.131.393.131.2-.066.229-.36.426-.459a3.652,3.652,0,0,0,.426.1c.066,0,.164,0,.2-.033a4.131,4.131,0,0,1,1.277,2.948c1.245-.1,2.686-.753,3.9-.95a20.63,20.63,0,0,1,2.653-.622h.066c1.015.066,1.408,1.277,1.736,2.162a6.86,6.86,0,0,1,.622,2.162,1.358,1.358,0,0,1-.1.524c-1.376.262-1.507,1.7-2.26,2.522a.114.114,0,0,1-.066.033c-.1,0-.1-.164-.2-.164Zm-9.989,5.666c0-.229.1-.524.1-.786,0-.164-.033-.295-.033-.491,0-.95.2-2.031.2-2.882a3.114,3.114,0,0,0-1.9,1.081,2.361,2.361,0,0,0-.164,1.015c0,.459.033.95.066,1.343a9.366,9.366,0,0,0,.262,2.1c.59-.229,1.245-.393,1.769-.655-.033-.229-.229-.36-.262-.59v-.131Zm.262-8.548c0-.2-.033-.524-.033-.786a.907.907,0,0,1,.033-.295,2.658,2.658,0,0,0-.557-.033c-.491,0-.95.1-.95.426v.066c.2,0,.524-.033.786-.033s.524.033.622.229c-.2.066-.36.1-.36.295v.066c.1.164.328.2.459.262v-.2ZM129.6,35.54a.526.526,0,0,0,.36-.164c-.2-.426-.59-.819-.622-1.245a.613.613,0,0,0-.262.459v.066l.131.983a.469.469,0,0,0,.36-.1h.033Zm1.081-4.159c0-.1.066-.164.066-.2v-.066a.5.5,0,0,1,.328-.2c.033-.426.36-.622.524-.884h-.1c-.2,0-.328.033-.459.033a.2.2,0,0,1-.2-.131c-.2.459-.95.328-1.245.622a10.813,10.813,0,0,0-.229,2.1v.229c.459,0,.557-.426.721-.721l.59-.786Zm22.467,17.194c-.557.393-1.539.164-2,.655a11.966,11.966,0,0,0-2.162.393,1.544,1.544,0,0,0-.491.2c-.36.2-.459.688-.753.884a2.8,2.8,0,0,1-.884.295c-.328.1-.59.295-.819.262h-.066c-.459-.033-.688-.59-1.015-.786-.36-.229-.819-.295-1.114-.59-.328-.328-.426-.622-.721-.819a6.618,6.618,0,0,1-1.343-1.212c-.328-.328-.721-.655-1.048-1.015-.393-.459-.557-1.048-.983-1.507a5.264,5.264,0,0,1-.753-.721,4.553,4.553,0,0,1-.688-3.013,3.857,3.857,0,0,1,.131-.819,7.794,7.794,0,0,1,1.114-2.424,14.6,14.6,0,0,0,1.048-2.391c.393-.95.622-1.9.95-2.62a12.36,12.36,0,0,1,1.146-2.391,1.927,1.927,0,0,1,.95-.655h.066c.262.033.426.262.688.36h.066c.066,0,.1-.033.164,0,.033,0,.066,0,.066.033,1.179.557,1.67,2.325,1.9,3.832h.164a5.794,5.794,0,0,0,.983-.2c.36-.033.786.131,1.114-.131a.415.415,0,0,0,.2.033c.426.033.819-.262,1.245-.229.131.033.262.164.36.2h.1c.328.033.688-.1,1.081-.066a.872.872,0,0,1,.393.1.662.662,0,0,0,.59.59h.131a2.766,2.766,0,0,0-.884-1.343c0-.655-.688-1.212-.655-1.769a.788.788,0,0,1,.295-.524,4.34,4.34,0,0,1,2.587-.753,1.085,1.085,0,0,1,.491.131c.131.131.295.328.459.491a3.513,3.513,0,0,1,.884.819c.229.426.1,1.048.262,1.6.2.622.622,1.081.59,1.8,0,.066-.033.131-.033.2a1.856,1.856,0,0,1-1.7,1.179c-.786-.066-.95-.557-1.441-.95-.2.033-.262.2-.393.295.131.164.131.426.426.459h.066v.066c0,.2.1.229.1.36-.131.229-.491.2-.524.491.066.229.36.229.426.459-.033.229-.164.295-.164.524,0,.066.033.2.033.328v.066c-.2.491-.917.2-.983.557-.033.033-.033.033-.066.033-.066,0-.131-.131-.229-.131h-.033a1.159,1.159,0,0,0-.524.295.969.969,0,0,0-.328-.066,1.827,1.827,0,0,0-1.212.328.1.1,0,0,0,.066.033c.1,0,.229-.1.328-.066h.066c-.524.557-1.441.295-2.162.426a6.426,6.426,0,0,0-2,.622,5.336,5.336,0,0,1-1.867.721h-.066c-.426-.1-.622-.786-.983-.819a.7.7,0,0,0-.393.131c-.295.2-.426.819-.655,1.31a4.124,4.124,0,0,0-.491,1.474,1.262,1.262,0,0,0,.524,1.179A26.093,26.093,0,0,1,146.79,43.6c.688-.164,1.31-.524,2.031-.688,1.343-.328,2.817-.524,4.389-.884a7.041,7.041,0,0,1,2.391-.36h.1c-.066.295-.393.328-.426.753v.066c.229.229.655.328.819.59a.487.487,0,0,0-.033.2c-.033.262.1.328.229.524a5.119,5.119,0,0,0-.622.459c.066.688.164,1.507.852,1.572h.033c-.066.2-.328.229-.622.2v.066c0,.2-.2.262-.229.393v.033a.248.248,0,0,0,.131.033c.229.033.393-.164.655-.164a.1.1,0,0,1,.033.066c0,.066-.2.066-.2.2.131.066.131.229.295.229.033,0,.066,0,.066-.033a.748.748,0,0,1-.295.524c-.426.295-.917.2-1.474.328-.459.1-.852.459-1.343.393H153.5c-.066.033-.066.066-.066.066v.2l-.491.1c0,.066.033.066.066.066h.131c-.033-.033,0-.033,0,.066ZM150.2,43.826h.066a.332.332,0,0,0,.229-.131c-.033-.1-.164-.066-.131-.164a16.573,16.573,0,0,0,3.046-.95,1.418,1.418,0,0,1-.164-.033c-.753-.066-1.6.426-2.194.393a.415.415,0,0,1-.2-.033,1.821,1.821,0,0,1-.852.36.3.3,0,0,1-.164-.033c.1-.033.1-.1.131-.131v-.164c.229-.1.393.066.524-.2h-.1a2.3,2.3,0,0,0-.983.164c-.164.753-1.572.295-2.063.721h-.066c-.066,0-.1-.066-.164-.066a.588.588,0,0,0-.131.295c0,.066.033.066,0,.1-.131.1-.36.1-.36.328.295-.262.721-.131,1.179-.131a.523.523,0,0,1,.1.262c0,.066-.033.1-.066.164h.131a.673.673,0,0,1,.491.295c.295-.033.59-.033.688-.262-.033,0-.033-.033-.066-.033-.131,0-.328.131-.459.131-.066,0-.1-.033-.131-.1a4.439,4.439,0,0,1,1.67-.59c.033-.033.033-.033.033-.066s-.033-.033-.033-.066Zm-1.965.426a.12.12,0,0,1-.131.131.248.248,0,0,1-.131-.033.18.18,0,0,1,.164-.1Zm5.993.459c.033-.426-.524-.655-.655-.917-.131-.033-.229-.033-.328-.066a4.044,4.044,0,0,0-1.441.2c-.36.1-.753.131-.852.393.131,0,.2-.033.262-.033a.523.523,0,0,1,.262.1c.229,0,.557-.2.852-.164a.3.3,0,0,1,.229.1c-.753.164-1.67.393-2.391.59-.262.066-.59.033-.786.229.033.033.033.033.066.033.066,0,.164-.131.262-.1.066,0,.066.033.1.066,0,.131-.164.1-.164.229v.066c.066.033.1.066.164.066h.393c.295.066.59.328.95.36h.066c.295-.033.426-.262.786-.328V45.5c0-.066-.033-.1-.033-.164,0-.033.033-.066.066-.033a.355.355,0,0,1,.2-.033c.066,0,.164,0,.164.066.328-.59,1.736.033,1.9-.59l-.066-.033Zm-4.52.131c.262.033.524-.262.688-.426-.066-.1-.131-.131-.164-.131-.229-.033-.36.426-.557.524Zm2.129,3.668c-.524.459-1.539.229-1.965.753a6.843,6.843,0,0,0,2.194-.655c-.066-.033-.066-.1-.164-.1Zm.917-5.076c0-.066.033-.1.033-.131s0-.066-.033-.066a.436.436,0,0,0-.262-.1.889.889,0,0,0-.557.2c-.688-.066-1.015.393-1.507.557h.1a9.7,9.7,0,0,0,1.015-.1c.033-.066.033-.066.033-.1V43.63c0-.033,0-.066.1-.066a2.212,2.212,0,0,0,.459.066,2.075,2.075,0,0,0,1.015-.131c-.033-.033-.033-.066-.1-.066s-.164.033-.262.033Zm-1.965,1.7a.2.2,0,0,1-.131-.033c0-.131.164-.2.295-.2a.25.25,0,0,1,.164.066C151.114,45.071,150.95,45.136,150.786,45.136Zm3.046,2.063a2.166,2.166,0,0,0,1.572-.557C154.814,46.807,154,46.578,153.832,47.2Zm.1,1.212a.315.315,0,0,1,.295-.2c.066,0,.164.033.131.131Zm1.212-.131h-.2a.691.691,0,0,1,.524-.2c.066,0,.164,0,.2.033A.833.833,0,0,1,155.142,48.281Zm.393-.426c0-.1.131-.164.262-.164.033,0,.066,0,.066.033C155.83,47.855,155.633,47.822,155.535,47.855Zm3.242-12.675a2.938,2.938,0,0,1-1.441-1.015c-.033-.1,0-.229-.033-.426-.1-.262-.393-.459-.426-.655-.033-.066-.033-.066,0-.131a1.164,1.164,0,0,1,.066-.328V32.56a10.045,10.045,0,0,1-.164-1.245.674.674,0,0,1,.295-.524,2.149,2.149,0,0,1,.753-.131c.917.066,1.245,1.114,1.8,1.638v.066c-.033.557.459.884.491,1.408v.2A1.347,1.347,0,0,1,158.777,35.18Zm20.306,10.349c-.066.033-.066.033-.131,0-.131,0-.2-.164-.295-.262h-.066c-.295-.033-.393.164-.59.2-.033-.229-.459-.164-.557-.36h-.033c-.131,0-.066.164-.164.2a1.469,1.469,0,0,1-.328-.426.694.694,0,0,1-.229.1.1.1,0,0,1-.066-.033c-.066-.033-.033-.1-.033-.131a.415.415,0,0,1,.033-.2v-.066a.441.441,0,0,0-.295-.164h-.426a.241.241,0,0,1-.262-.131c-.066,0-.066-.033-.131-.033a1.361,1.361,0,0,0-.426.1.962.962,0,0,0-.557-.229.826.826,0,0,0-.655.164c.033.1.295.033.262.164a.072.072,0,0,1-.1.033c-.1,0-.2-.1-.328-.1a.12.12,0,0,0-.1.033c.033-.066.066-.1.066-.131s-.033-.066-.1-.1c-.066,0-.1.033-.1.066v.033c0,.066,0,.066-.066.1a3.1,3.1,0,0,0-.59-.164,2.159,2.159,0,0,0-1.343.295c-.1,0-.1-.1-.1-.164-.131.131-.295.1-.459.1l-.426-.033a.59.59,0,0,0-.328.033q-.2-.049-.491-.1a1.393,1.393,0,0,0-1.015.2,1.458,1.458,0,0,0-1.179.295.782.782,0,0,0-.295-.066,2.506,2.506,0,0,0-1.146,1.179c-.328.459-.36,1.015-.786,1.212a12.947,12.947,0,0,1-1.9-1.408,7.175,7.175,0,0,1-.786-1.408,5.837,5.837,0,0,1-.655-1.834,4.453,4.453,0,0,1-.2-1.474,1.5,1.5,0,0,1,.491-1.015,2.932,2.932,0,0,1,1.474-.688,1.092,1.092,0,0,1,.328,0c.2.033.459.066.753.1h.164a10.209,10.209,0,0,1,1.769-.131l.557.066c1.114.066,2.194-.2,3.144-.131a.956.956,0,0,1,.295.066h.131c.2.033.459,0,.721.033a2,2,0,0,1,.426.1v.164c-.459.1-1.245-.2-1.31.262.033.1.2.131.393.131l.2.033c.2.033.36.066.393.229a.455.455,0,0,1,.36-.066,2.249,2.249,0,0,1,.557.164.674.674,0,0,1-.557.131.376.376,0,0,1-.36-.2c-.1.066-.262.066-.393.131-.2,0-.1-.2-.229-.2a6.189,6.189,0,0,0-1.146.328v.033c0,.1.131.066.131.164a4.336,4.336,0,0,1,1.31-.033,5.554,5.554,0,0,1,.721.131.12.12,0,0,1,.033.1v.1c0,.033,0,.066.033.066a3.333,3.333,0,0,1,.983-.033c.328.033.655.1.983.1.2,0,.36.033.524.033a.68.68,0,0,0,.393.164c.295.033.622-.1.95-.066h.1a.528.528,0,0,0,.459.262c.36.033.786-.2,1.179-.164h.066c.295.033.59.229.917.262a.507.507,0,0,0,.36-.1,2.2,2.2,0,0,0-.917-.328h-.426a.4.4,0,0,1-.131-.262,2.552,2.552,0,0,1-.983-.229.3.3,0,0,1,.262-.131c.229.033.622.262.95.295h.066c.1-.033.2-.131.328-.131.066,0,.1-.033.164,0,.393.033.721.36,1.114.393h.066c.2,0,.328-.066.459-.066h.131c.229.033.491.131.721.164.066,0,.1-.033.164,0-.59-.688-1.736-.491-2.882-.786-.2-.033-.524-.1-.557-.328.066-.131.229-.131.393-.131a1.012,1.012,0,0,1,.622.295l.491.033c1.048.1,2.391.328,2.948,1.015-.066.131-.164.131-.2.328a8.062,8.062,0,0,1,.262,2.489,1.646,1.646,0,0,0-.262.393,1.489,1.489,0,0,1,.1.786c-.033.033-.033.033-.066.033-.066,0-.1-.033-.164-.033-.033,0-.066,0-.066.033.066.229.229.328.229.557a1.173,1.173,0,0,1-.36.131c0,.066.033.1,0,.131,0,.2-.164.229-.2.393-.459-.1-.688-.36-1.212-.426-.066-.033.033-.2-.066-.229a.149.149,0,0,1-.164,0c-.164,0-.36-.1-.59-.131h-.229l-.033-.033c0-.066.066-.033.066-.131l.033-.1Zm-6.419-6.059c-.066,0-.1,0-.131-.033a.116.116,0,0,1,.1-.066.087.087,0,0,1,.1.1h-.065Zm.295.884a.141.141,0,0,1-.131-.131c.1-.033.229-.1.328-.066.033,0,.066,0,.066.033,0,.066-.164.164-.262.164Zm1.015,3.177c-.295-.033-.524-.164-.753-.164a.35.35,0,0,0-.36.164,3.725,3.725,0,0,0,1.114.229c.622.066,1.31.033,1.932.1a4.652,4.652,0,0,1,1.015.2,2.346,2.346,0,0,0,.721.262.549.549,0,0,0,.36-.1,9.593,9.593,0,0,0-2.718-.59,4.637,4.637,0,0,0-.655-.131,2.937,2.937,0,0,1-.59.066l-.066-.033Zm-.753-4.094c0,.066-.066.1-.131.1s-.066-.033-.066-.1v-.033Zm2.62,3.635c.262-.164.786-.033.983-.131-.655-.131-1.572-.36-2.391-.459a5.181,5.181,0,0,0-1.245.033,1.856,1.856,0,0,0,.491.1l.688.066a2.551,2.551,0,0,1,.753.164c.1,0,.164-.066.262-.066ZM174.3,40.486c-.295-.033-.655-.131-.884-.164a.673.673,0,0,1,.59-.131,2.425,2.425,0,0,1,.753.2c-.066.131-.229.131-.459.1Zm.557-.622a1.4,1.4,0,0,1-.852-.295c.2,0,.393-.066.59-.066a.392.392,0,0,1,.262.131,2.413,2.413,0,0,1,1.376.131,5.759,5.759,0,0,1-1.376.1Zm1.015.852a1.529,1.529,0,0,1-.655-.229.667.667,0,0,1,.491-.2.688.688,0,0,1,.557.36A.9.9,0,0,1,175.873,40.715Zm-.2,1.277c.328.033.655.131.983.164a.663.663,0,0,0,.491-.131,6.077,6.077,0,0,0-1.834-.36v.066c0,.2.131.131.2.229Zm.1,2.555c.066,0,.164.033.131.131A.12.12,0,0,1,175.775,44.547Zm1.638.229c-.2,0-.328,0-.393.1a.18.18,0,0,0,.164.1.219.219,0,0,0,.229-.131Zm.1-1.376c-.131,0-.295.066-.328.164a.607.607,0,0,0,.229.066c.131,0,.229,0,.262-.066C177.675,43.466,177.609,43.433,177.511,43.4Zm-.131-.295a1.885,1.885,0,0,1,.328.066c.066,0,.131,0,.164-.066-.033-.066-.164-.1-.262-.1-.131,0-.262,0-.295.1h.065Zm.753.655a.114.114,0,0,1,.033-.066c0-.066-.033-.1-.066-.1-.066,0-.066.033-.1.033a.087.087,0,0,0,.1.1Zm.459,1.67h.2a.12.12,0,0,1-.131.131C178.624,45.562,178.559,45.529,178.592,45.431Zm10.48,4.52c-.164,0-.131-.131-.262-.164-.131,0-.066.262-.2.262-.229-.033-.229-.2-.262-.36-.131.033-.2.295-.328.295a.114.114,0,0,1-.066-.033c0-.164.164-.1.164-.229h-.033c-.328-.033-.295-.36-.459-.557a1.078,1.078,0,0,1-.59.164c-.557-.033-1.048-.524-1.67-.557h-.229a1.486,1.486,0,0,1-.328-1.245,5.924,5.924,0,0,1,.852-2.26c.393-1.31.884-2.653,1.31-4.127a4.7,4.7,0,0,1,.459-1.114,1.554,1.554,0,0,1,0-.393,1.911,1.911,0,0,1,.557-1.376c.36.033.393-.295.622-.36a1.079,1.079,0,0,1,.459,0c.36.033.721.131,1.015.164l.59.066a1.665,1.665,0,0,1,.426.295c.459.262,1.015.36,1.539.59a2.885,2.885,0,0,1,1.965,2.358v.295c-.066.852-.655,1.015-1.114,1.441a5.454,5.454,0,0,0-.393.753c-.229.524-.622.917-.884,1.441a8.791,8.791,0,0,1-.393,1.212c-.2.295-.622.459-.786.753v.066c-.033.426-.295.524-.459.753v.328a.465.465,0,0,1-.066.2l.033.033c.066,0,.1-.2.2-.2.033,0,.066,0,.066.033a.2.2,0,0,0-.033.131v.262c-.229.2-.622.295-.655.59a1.418,1.418,0,0,1-.164-.033c-.459-.066-.622.36-.884.524Zm-1.015-.59c-.033-.033-.066-.033-.033-.066h-.066c0,.033,0,.066-.033.066v.066h.033v.033h.066l.033-.033h.033Zm2.358-.066c0-.1.1-.131.1-.2a.12.12,0,0,1,.131.131c0,.066-.066.1-.131.1Zm.917-1.736c0,.066-.033.131-.1.131s-.066-.066-.066-.131v-.033c.033,0,.033.033.066.033s.066-.033.1-.033Zm5.764,6.976a.989.989,0,0,1-.786.229.827.827,0,0,1-.688-.393c-.1,0-.164.033-.262.033h-.066c-.622-.786-2.358-1.572-2.653-2.718,0-.2-.033-.36-.033-.524.066-.917.852-1.539,1.245-2.194a20.578,20.578,0,0,0,2-6.648v-.1a3.559,3.559,0,0,0-.033-.59v-.459l.033-.491c0-.2.033-.393.033-.59-.033-.983-.131-1.932-.2-2.915,0-.655-.295-1.277-.295-1.9,0-.066-.033-.1,0-.2a.913.913,0,0,1,1.081-.852c.066,0,.164.033.229.033a4.182,4.182,0,0,1,1.539.95,3.278,3.278,0,0,1,1.081,1.8,15.1,15.1,0,0,1-.066,1.769,8.388,8.388,0,0,1-.1,1.277l-.1,1.212a13.437,13.437,0,0,1-.557,2.915,4.883,4.883,0,0,1,.131.59c-.1.164-.393.2-.393.426v.131c.459-.229.753-.721,1.245-.884l.033.033c0,.066-.164.131-.164.2,0,.033.033.066.033.1a.12.12,0,0,0,.1.033c.131,0,.164-.262.262-.262a.1.1,0,0,1,.066.033.751.751,0,0,1-.557.721.1.1,0,0,0,.033-.066c0-.066-.066-.066-.164-.066-.066,0-.164,0-.2-.066-.295.2-.688.229-.753.688a1.09,1.09,0,0,0,.688.36.773.773,0,0,0,.786-.36.12.12,0,0,0-.1-.033h-.36c.164-.393.557-.557.917-.753h.033c.131,0,.1.1.2.164a3.224,3.224,0,0,0,1.114-.983,1.69,1.69,0,0,1-.066-.36.284.284,0,0,1,.131-.229.619.619,0,0,1-.459-.393.114.114,0,0,1-.066-.033c-.131,0-.229.131-.262.131H200.7c.1-.262.59-.459.884-.721.164-.164.229-.393.426-.393h.033c.164,0,.262.2.459.2a.353.353,0,0,0,.229-.066,1.479,1.479,0,0,0,.884.36.64.64,0,0,0,.622-.2c.033-.295-.2-.459-.164-.721a.3.3,0,0,1,.033-.164.779.779,0,0,0-.426-.295.393.393,0,0,1,.393-.295.334.334,0,0,1,.262.164v.066c0,.1-.066.164-.066.229a.617.617,0,0,0,.262.066c.131,0,.295,0,.36-.066-.131-.459-.491-.524-1.048-.59.033-.164.229-.164.295-.295a.272.272,0,0,0,.262.1,2.014,2.014,0,0,0,.426-.033c.2.229.59.524.557.852a.465.465,0,0,1-.066.2c.1.1.262.131.36.229-.033.066-.033.066-.033.1-.033.2.164.393.164.622v.066c.033.033.066.066.1.066.1,0,.2-.1.262-.066.066,0,.066,0,.1.033a.1.1,0,0,1,.033.066c0,.1-.229.2-.295.295a.872.872,0,0,0,.393.1.639.639,0,0,0,.229-.033c.066.066.066.1.066.2a1.088,1.088,0,0,1-.131.426v.033c0,.164.393.884.36,1.114v.033c-.066.295-.59.459-.819.622a1.511,1.511,0,0,0-.753.983,5.1,5.1,0,0,0-.655.524h-.033c-.066,0-.033-.1-.131-.131a1.652,1.652,0,0,1-1.081.753,7.835,7.835,0,0,0,1.8-1.8h-.066c-.262-.033-.36.164-.59.2a27.154,27.154,0,0,1-2.62,2.522.114.114,0,0,1-.033.066c0,.066.033.1.033.164a3.782,3.782,0,0,0-.622.459c0,.066.033.066.066.1.066,0,.1-.033.2,0h.033c-.033.229-.2.328-.262.491a.541.541,0,0,1-.262-.426.224.224,0,0,0-.229.229c0,.033.033.066.033.1h-.066c-.1,0-.1-.066-.1-.131v-.066c-.557.426-.95,1.114-1.507,1.572-.328.295-.786.393-.917.852,0,.131.033.295.033.393-.229.655-1.081,1.114-1.146,1.965l-.131.131Zm2.62-8.876c.131,0,.262-.2.36-.295a.12.12,0,0,0-.1-.033C199.847,45.3,199.716,45.5,199.716,45.66Zm1.408,2.358a.12.12,0,0,0,.033.1,1.041,1.041,0,0,0,.328-.328C201.288,47.757,201.124,47.855,201.124,48.019Zm1.179-.884c.2-.033.491-.229.491-.36,0-.033,0-.066-.033-.066C202.631,46.807,202.336,46.807,202.3,47.134Zm.033,1.539c.033-.426.491-.688.852-.884A1.727,1.727,0,0,1,202.336,48.674Zm1.245-2.817a.618.618,0,0,0-.36.393v.131c.262-.033.328-.262.459-.426l-.1-.1Zm1.343-4.258c-.033.066-.033.066-.033.1,0,.066.033.066.033.164.131,0,.164-.131.2-.229Zm-98.777,82.3a5.648,5.648,0,0,1-1.376,3.472c.1.393.393.491.393.983a.99.99,0,0,0-.1.295c-1.081,1.769-1.277,3.865-1.67,6.616-.295,2.063-.983,5.338-2.882,5.535-.786,0-4.651-2.358-5.535-3.177-2.686-2.26-5.142-5.338-8.712-6.517a2.312,2.312,0,0,1-.786.2c-1.277,0-2.358-.983-3.472-1.572-2.26-.983-5.24-1.67-7.5-3.177-.884-3.079-1.081-7.009-2.162-9.989h-.1c-.983,0-.884.786-1.474,1.081a3.122,3.122,0,0,1-1.277.2c-1.572,0-2.882-.884-4.159-1.277a3.023,3.023,0,0,0-.59,1.867c0,1.474.491,3.079.59,4.651.1,3.668,0,8.122.983,11.07-.2.983-.786.688-.884,1.572,0,.491.295,1.081.295,1.67v.2a2.582,2.582,0,0,1-2.456,2.555,1.918,1.918,0,0,1-.688-.1c-.59-.2-.786-.884-1.67-1.67a7.508,7.508,0,0,0-1.572-1.081c-1.081-.688-1.474-1.965-2.686-2.456a7.305,7.305,0,0,0-.295-1.67c0-.491-.884-.2-1.081-.491-1.376-3.275-1.572-7.5-2.686-10.972H52.3c-1.277,0-2.063,1.474-3.079,2.162a36.014,36.014,0,0,1-3.079,1.965c-1.179.688-2.26,1.769-3.275,1.965h-.2c-.491,0-.983-.295-1.474-.295H41c-.786.1-.786.884-1.67.884-.393-.1-.393-.786-.786-.884,2.784-5.338,7.7-8.319,10.284-13.854,1.965-.688,2.555-2.882,3.865-4.356h-.2c-.59,0-1.376.688-2.063.884-.1.1-.1.1-.1.2s.2.295.2.491c0,.1-.1.2-.295.393-.59.491-1.179.295-1.67.59-1.769.983-3.079,4.061-4.945,4.061h-.1c-1.277,0-3.373-1.965-4.258-3.079-.393-.295-.884-1.474-1.277-1.867a36.842,36.842,0,0,0-2.686-2.882,27.883,27.883,0,0,1-1.769-3.57C32.26,102.058,30,99.5,30,96.032a7.436,7.436,0,0,1,.1-1.474A4.277,4.277,0,0,1,31.572,92.4c2.686-2.063,6.517-3.177,9.989-4.552,3.57-1.572,7.4-2.358,10.48-3.766-.884-1.277-4.258-2.26-7.107-2.26-1.572,0-3.079.393-3.668,1.179-.59.884-.295,1.769-1.081,2.882a11.223,11.223,0,0,1-2.555-.884c.2-7.5,4.552-12.151,8.319-16.6,5.24-3.373,10.579-11.07,16.9-11.856a18.857,18.857,0,0,1,2.162-.295,3.857,3.857,0,0,1,1.376.295c1.867.688,4.552,4.749,5.142,7.4v.393c0,.59-.1,1.081-.1,1.67a2.163,2.163,0,0,0,.1.786c.1.786.59,1.376.59,2.162v.2c0,.786-.393,1.277-.393,2.358V71.8c.1,1.376.983,1.867.983,3.766-1.081-.295-1.572-1.376-2.555-1.474H69.76c-2.784,0-5.24,3.57-6.223,5.731.786,2.26,2.98,3.079,5.535,3.472.1.1.1.2.1.393s-.1.491-.1.59,0,.1.1.2c1.179.786,1.277,2.98,1.867,4.061a2.09,2.09,0,0,0-1.474,2.162,3.841,3.841,0,0,0,.983,2.358c-.295.884-.59,1.965-1.376,2.358.2.688,1.376.2,1.67.688-.1.295-.295.295-.59.295-.59,0-1.376-.2-1.965-.2-.2,0-.393,0-.491.2,0,.59.393.59.983.59h.295c.393,0,.59,0,.786.2-.688.983-2.162,1.376-2.98,2.456A2.294,2.294,0,0,1,65.9,101.6a7.256,7.256,0,0,1,.2,1.179c0,1.179-.59,1.769-.59,2.686a1.246,1.246,0,0,0,.1.59c.295,1.081,1.376.786,2.162,1.277,1.376.688,2.784,2.358,3.963,2.98v.1c0,.393-.393.59-.393.884,0,.1.1.2.2.295a3.054,3.054,0,0,0,.884-2.456c0-.688-.1-1.572-.1-2.26,0-1.67-.2-3.57-.2-5.24,0-.688.295-1.376.295-2.063-.1-1.474-.491-3.177-.491-4.454a3.819,3.819,0,0,1,.2-1.474c-.1-.393-.295-.688-.393-1.179a8.99,8.99,0,0,1-.1-1.67c0-4.159,1.572-7.6,4.651-8.712,1.277-.491,2.882-.393,4.651-.983.786-.2,1.179-.688,1.867-.884A92.606,92.606,0,0,1,101,75.955c1.179-.1,2.26-.1,3.472-.1,4.454,0,8.908.786,10.873,3.373a27.043,27.043,0,0,1,3.373,5.535c.884,1.867,2.555,4.356,2.686,6.223v.2a11.879,11.879,0,0,1-1.179,4.258c-.786,1.277-2.26,1.474-3.668,2.555a17.828,17.828,0,0,0-4.159,6.026c-.786,1.965-.2,3.275-1.867,4.749a.736.736,0,0,1,.1.491c0,.491-.393.786-.393,1.67v.393a14.9,14.9,0,0,0-2.26,2.98c-.59,3.177-1.67,5.928-2.358,8.81v.1c0,.295.1.295.295.295s.295,0,.295.295v.1ZM49.29,110.278c-.295,0-.59.295-.59.786a.361.361,0,0,0,.295.1.772.772,0,0,0,.59-.786A.361.361,0,0,0,49.29,110.278Zm3.635-2c0,.1-.1.2-.295.2,0,.295.2.295.2.491.2,0,.2-.295.491-.393C53.122,108.575,53.024,108.379,52.926,108.281Zm15.426-6.321c0,.295-.295.393-.59.393s-.59-.1-.59-.393v-.1h1.179Zm1.015-.983a8.017,8.017,0,0,1-1.769-.2,2.53,2.53,0,0,1,1.769-.491,5.882,5.882,0,0,1,1.179.2C70.546,100.879,69.956,100.977,69.367,100.977Zm22.926,11.659c1.867,0,3.079-4.159,3.865-6.026,2.162-4.749,4.454-10.087,5.535-15.328-1.277,1.081-3.668,1.081-4.651,2.555.1.1.1.2.2.2.295,0,.688-.393.884-.393.1,0,.2.1.2.295-3.177.983-5.633.59-7.4,2.98a6.352,6.352,0,0,0-.786,3.57c0,1.081.1,2.456.2,3.865v4.159c0,2.063.2,3.963,1.867,4.159h.1ZM196.8,136.283c-1.572,0-2.358-1.474-4.159-1.867a12.528,12.528,0,0,0-1.867-.1c-1.67,0-3.177.2-4.945.295a5.8,5.8,0,0,0-.2,1.376,28.1,28.1,0,0,0,.295,3.079c-.491.393-1.277.59-1.474,1.572a2.662,2.662,0,0,1-1.867-.983,3.935,3.935,0,0,0-.786,1.769,1.547,1.547,0,0,0-1.277-.688c-.688,0-1.376.295-2.26.393h-.295a35.637,35.637,0,0,1-4.258-.786c-2.555-.393-5.338-.295-6.714-1.867v-.1c0-.393.1-.491.1-.884v-.328c-1.474-3.963-1.769-9.5-1.769-15.229,0-4.356.2-9.007.2-13.264a1.246,1.246,0,0,0-.59-.1h-.884a1.46,1.46,0,0,1-.884-.2c-2.26,1.67-5.24,1.277-7.6,2.784,1.277,1.572,3.472.983,5.044,2.26,1.474.983,3.963,4.847,4.159,7.107v.393c0,.491-.1.983-.1,1.474a1.478,1.478,0,0,0,.393,1.081,4.557,4.557,0,0,0-.393,2.063,10.737,10.737,0,0,0,.393,2.358A7.305,7.305,0,0,1,161,129.176c-3.865,0-7.926-2.882-11.168-3.766a3.4,3.4,0,0,0-.59,2.26c0,1.474.295,2.98.295,4.356v.786a3.7,3.7,0,0,1-2.882,1.572c-2.882,0-5.437-4.651-8.81-5.142h-.59c-1.179,0-2.26.393-3.865.491.786-4.454,4.945-6.91,5.731-11.856-1.769.295-2.162,2.162-4.061,2.555-.983,1.572-.983,4.454-2.98,4.945a4.255,4.255,0,0,0-.491.1c-1.081,0-1.867-.688-2.882-.688a2.239,2.239,0,0,0-1.081.295,22.1,22.1,0,0,0-3.177-3.57c-1.081-3.865-4.552-7.4-4.651-11.856v-.2c0-4.061,2.882-4.258,6.124-5.928a22.668,22.668,0,0,1,3.472-1.867,24.488,24.488,0,0,1,2.686-.59c2.063-.884,3.275-1.769,5.535-2.063-2.686-4.552-10.579-2.358-12.642-6.812V91.021c0-3.963,1.179-6.714,2.162-10.677A55.161,55.161,0,0,1,129.6,72.32a32.766,32.766,0,0,1,1.769-3.57c1.376-3.177,2.98-8.515,5.142-10.382a5.392,5.392,0,0,1,2.063-1.179h.1c4.258,1.769,8.81,3.177,12.249,6.124.393,1.867,3.177,2.882,3.766,4.651a1.915,1.915,0,0,1,.1.786v.884c.1.59.59,1.277.59,1.769v.1c-.2,1.965-3.275,2.063-3.668,4.159a6.335,6.335,0,0,0,1.965.295c2.456,0,5.142-1.277,7.6-1.277a4.784,4.784,0,0,1,1.179.1c1.67.393,2.26,2.456,3.275,4.061.983-1.474.688-3.177.786-5.24a22.261,22.261,0,0,1,1.376-6.026c1.179-3.177,1.867-7.5,5.535-7.5a4.344,4.344,0,0,1,1.474.2,32.291,32.291,0,0,1,3.373,1.474c3.275,1.179,6.91,3.275,8.908,5.83,1.376,1.867,2.063,4.651,4.258,6.321,1.769,1.376,3.865,2.456,5.731,4.061,4.749,4.159,11.659,9.1,12.445,16.9.1,1.081.393,2.686.393,4.061,0,.393-.1.688-.1.983-.295,1.376-1.769,2.784-1.769,4.356a3.491,3.491,0,0,0,.2.983c-4.749,2.162-6.223,10.972-6.91,18.5-.1,1.769-1.081,3.57-1.179,5.535-.295,3.275-.1,6.517-2.98,6.91H196.8ZM145.382,96.032c0-.688.2-1.474.2-1.965a.829.829,0,0,0-.2-.688h-.2c-1.572,0-2.162,1.081-2.358,2.456-1.081.491-2.686.59-2.882,2.063a22.389,22.389,0,0,0,5.437-1.474ZM142.336,99.8c-.295.786-1.179.884-1.376,1.67a2.113,2.113,0,0,0,1.277.59c1.277,0,2.26-2.162,2.456-3.668a.75.75,0,0,0-.491-.2,1,1,0,0,0-.884.59c.2.295.59.295.59.59a2.188,2.188,0,0,1-1.277.393h-.295ZM164.869,85.06a5.056,5.056,0,0,1-2.686.59h-2.456a17.79,17.79,0,0,0-9.694,4.258c.393.688,1.081.688,1.67,1.179.688.786.983,1.867,2.162,2.063.491,0,.786-.393,1.474-.491.2,0,.688.2.786.2,1.277-.393,3.275-1.769,4.454-2.063,2.063-.491,3.865-.2,4.945-1.474a7.877,7.877,0,0,0,.295-2.26,5.8,5.8,0,0,0-.59-2.686c0,.1,0,.1-.1.1a.3.3,0,0,1-.2-.1v.1c0,.2-.1.295-.1.491v.1ZM161.2,108.019c.1-.1.1-.1.1-.2,0-.2-.393-.2-.393-.491v-.1a8.517,8.517,0,0,0,2.784-1.376,1.061,1.061,0,0,0-.688-.295c-.393,0-.983.295-1.474.295a1.4,1.4,0,0,1-.59-.2c.295-.295,1.179-.1,1.179-.59a19.713,19.713,0,0,0-6.616,1.867v.884A3.162,3.162,0,0,0,153.734,109a2.312,2.312,0,0,0,.786.2c1.277,0,2.456-1.474,4.356-1.474h.59c.491,0,.295.59.786.59l.95-.295ZM154,110.475c.983-.393,2.882-.2,3.079-1.474C155.371,109.394,154.683,109.591,154,110.475Zm10.284-14.247c-.295,0-.295,0-.295-.1,0-.2.295-.59.295-.786,0-.1-.1-.2-.2-.295-.884.2-1.179.884-1.965,1.081,0,.1-.1.2-.1.295,0,.2.2.2.2.393v.1c-.2.1-.295.2-.491.2-.491,0-1.081-.295-1.474-.295s-.688.2-.786.983c-.295-.295-.491-.688-1.081-.688h-.393c-.2.1,0,.59-.295.688h-.2a1.746,1.746,0,0,1-.983-.393c0-.1.295-.1.295-.393v-.1c-.2-.2-.688-.2-.983-.688.393-.59,1.179-.786,1.474-1.474-.295,0-.1-.59-.295-.688a6.982,6.982,0,0,0-2.162.688v.2c0,.983.491,1.277.983,1.867-.295,0-.393.295-.59.393v.1c0,.295.491.1.491.491-.2.295-.786.688-.786,1.277a1.4,1.4,0,0,0,.2.59c2.882-.884,7.107-1.474,9.3-3.472h-.164Zm-8.908,5.633c.295,0,.393-.1.393-.393-.2,0-.2-.1-.393-.2,0,.1-.2.2-.2.59Zm1.376-.393a19.276,19.276,0,0,0,7.009-2.063C161.5,99.5,157.86,99.7,156.747,101.468Zm.819-6.616c0,.2.1.2.2.2.295,0,.59-.1.59-.295a.343.343,0,0,0-.2-.1c-.1.1-.1.1-.2.1s-.2-.1-.295-.1a.1.1,0,0,0-.1.1v.1Zm2.849,0c-.688,0-1.572.295-1.67.786a1.116,1.116,0,0,0,.786.295,2.229,2.229,0,0,0,1.769-.884,1.962,1.962,0,0,0-.884-.2Zm24.236,20.273a9.8,9.8,0,0,0,1.572.2c3.668,0,4.356-3.963,5.731-7.009,2.162-4.749,3.177-10.284,5.633-13.854a14.141,14.141,0,0,1-3.766-3.865h-.786c-3.177,0-7.107,1.081-8.024,3.079a9.634,9.634,0,0,0-.491,3.668c0,1.507.1,3.177.2,4.454v2.456c0,3.079-.1,6.419-.1,9.007v1.867Z" style="fill:#fff"/></svg>