<svg xmlns="http://www.w3.org/2000/svg" width="600" height="300" viewBox="0 0 600 300">
	<path fill="#5279E7" d="M214.689 119.809h11.845v23.081h25.111v-23.081h11.729v61.132h-11.729v-26.819h-25.111v26.819h-11.845v-61.132zM330.679 119.059h11.354v16.716h6.736v9.613h-6.736v35.554h-11.354v-35.554h-5.865v-9.613h5.865v-16.716zM406.249 135.765h11.096v5.607c2.497-2.1 4.761-3.56 6.803-4.38 2.033-.827 4.115-1.241 6.241-1.241 4.367 0 8.07 1.521 11.128 4.579 2.56 2.587 3.839 6.422 3.839 11.496v29.115h-11.093v-19.301c0-5.258-.237-8.743-.696-10.479-.468-1.726-1.284-3.042-2.443-3.946-1.166-.903-2.589-1.357-4.311-1.357-2.205 0-4.112.755-5.688 2.247-1.596 1.509-2.694 3.574-3.308 6.213-.321 1.374-.472 4.352-.472 8.939v17.684h-11.096v-45.176zM306.197 135.8v4.48c-3.77-2.829-8.455-4.506-13.524-4.506-12.477 0-22.583 10.112-22.583 22.584 0 12.478 10.106 22.583 22.583 22.583 5.069 0 9.755-1.675 13.524-4.503v4.479h11.329v-45.117h-11.329zm-13.524 35.019c-6.888 0-12.468-5.576-12.468-12.461 0-6.88 5.58-12.456 12.468-12.456 6.874 0 12.455 5.576 12.455 12.456 0 6.885-5.582 12.461-12.455 12.461zM488.668 135.8v4.481c-3.767-2.83-8.452-4.507-13.525-4.507-12.47 0-22.58 10.112-22.58 22.584 0 12.478 10.11 22.583 22.58 22.583 5.073 0 9.759-1.676 13.525-4.503v4.479h11.332v-45.117h-11.332zm-13.525 35.019c-6.884 0-12.465-5.576-12.465-12.461 0-6.88 5.581-12.456 12.465-12.456 6.877 0 12.458 5.576 12.458 12.456 0 6.885-5.581 12.461-12.458 12.461zM376.106 135.888c-6.367 0-11.659 2.156-15.876 6.477-4.226 4.323-6.335 9.747-6.335 16.284 0 6.382 2.115 11.693 6.347 15.936 4.227 4.235 9.711 6.357 16.437 6.357 4.33 0 8.025-1.257 11.18-2.796 3.15-1.54 7.385-6.368 9.22-10.918l-10.115.017c-2.894 2.827-6.353 4.242-10.378 4.242-3.362 0-6.13-.906-8.295-2.717-2.18-1.817-3.507-4.251-4.006-7.322h34.63l.037-2.043c0-7.065-2.115-12.75-6.353-17.066-4.236-4.303-9.731-6.451-16.493-6.451zm-11.357 17.155c1.223-2.605 2.541-4.426 3.97-5.456 2.273-1.659 4.924-2.488 7.94-2.488 2.779 0 5.218.738 7.323 2.213 2.104 1.472 3.515 3.38 4.229 5.73h-23.462z"/>
	<path fill="#5279E7" d="M127.161 127.285c2.255.794 11.828 4.166 12.135 4.273.309-.107 9.881-3.479 12.137-4.273-2.255-.792-11.828-4.164-12.137-4.273-.307.109-9.88 3.48-12.135 4.273zM154.706 127.285c2.255.794 11.829 4.166 12.137 4.273.308-.107 9.881-3.479 12.137-4.273-2.256-.792-11.829-4.164-12.137-4.273-.309.109-9.883 3.48-12.137 4.273z"/>
	<path fill="#C2D7FF" d="M140.989 137.723c2.257.794 11.829 4.166 12.137 4.273l12.136-4.273c-2.255-.793-11.829-4.163-12.136-4.271-.308.108-9.88 3.478-12.137 4.271z"/>
	<path fill="#5279E7" d="M167.983 137.723c2.256.794 11.829 4.166 12.137 4.273l12.137-4.273c-2.257-.793-11.829-4.163-12.137-4.271-.307.108-9.881 3.478-12.137 4.271zM113.883 137.723c2.255.794 11.828 4.166 12.135 4.273l12.137-4.273c-2.257-.793-11.829-4.163-12.137-4.271-.306.108-9.879 3.478-12.135 4.271zM140.934 172.714c2.255.795 11.829 4.164 12.135 4.274.309-.11 9.88-3.479 12.137-4.274-2.256-.791-11.829-4.163-12.137-4.272-.307.109-9.88 3.481-12.135 4.272z"/>
	<path fill="#C2D7FF" d="M140.549 158.935c2.256.792 11.829 4.162 12.136 4.271.309-.108 9.88-3.479 12.137-4.271-2.256-.796-11.828-4.166-12.137-4.274-.308.108-9.88 3.478-12.136 4.274zM168.422 158.935c2.254.792 11.828 4.162 12.137 4.271.308-.108 9.88-3.479 12.135-4.271-2.255-.796-11.828-4.166-12.135-4.274-.309.108-9.882 3.478-12.137 4.274zM113.444 158.935c2.255.792 11.828 4.162 12.136 4.271.306-.108 9.88-3.479 12.135-4.271-2.254-.796-11.827-4.166-12.135-4.274-.308.108-9.882 3.478-12.136 4.274z"/>
	<path fill="#C2D7FF" d="M127.326 148.164c2.254.795 11.828 4.165 12.137 4.273l12.137-4.273c-2.256-.792-11.829-4.164-12.137-4.273-.309.109-9.883 3.481-12.137 4.273z"/>
	<path fill="#5279E7" d="M154.872 148.164c2.255.795 11.828 4.165 12.135 4.273.308-.108 9.882-3.479 12.137-4.273-2.255-.792-11.829-4.164-12.137-4.273-.308.109-9.881 3.481-12.135 4.273z"/>
	<path fill="#C2D7FF" d="M181.866 148.164c2.255.795 11.829 4.165 12.136 4.273.309-.108 9.883-3.479 12.137-4.273-2.254-.792-11.829-4.164-12.137-4.273-.308.109-9.881 3.481-12.136 4.273zM100 148.164c2.256.795 11.829 4.165 12.137 4.273l12.137-4.273c-2.255-.792-11.829-4.164-12.137-4.273-.308.109-9.881 3.481-12.137 4.273z"/>
</svg>