<svg xmlns="http://www.w3.org/2000/svg" viewBox="0 0 240 160"><title>sakura-internet</title><path d="M68.473,51.207a21.342,21.342,0,0,0-29.883,3.357L28.6,66.894a5.043,5.043,0,0,0,3.92,8.219H61.74a8.575,8.575,0,0,1,8.4,6.794l.175.828,1.36-1.68a21.185,21.185,0,0,0-3.139-29.795Z" style="fill:#f57"/><path d="M10.912,108.1A21.334,21.334,0,0,0,40.8,104.74L50.78,92.411a5.043,5.043,0,0,0-3.92-8.219H17.648A8.575,8.575,0,0,1,9.26,77.4l-.175-.828-1.36,1.68a21.185,21.185,0,0,0,3.126,29.8Z" style="fill:#808088;opacity:0.4000000059604645;isolation:isolate"/><path d="M162.963,54.109V70.4c0,5.108,3.772,8.877,10.44,8.877,6.28,0,10.375-3.428,10.375-9.019V54.109h-3.643v15.1c0,5.3-2.268,7.012-6.385,7.012-4.308,0-6.012-2.191-6.012-7.12V54.109Z" style="fill:#808088"/><path d="M95.91,60.008c0-2.025,1.391-3.209,4.1-3.209a12.145,12.145,0,0,1,7.308,2.4v-4a18.963,18.963,0,0,0-7.329-1.443c-5.391,0-9.231,2.655-9.231,6.652,0,8.188,12.569,6.865,12.569,12.366,0,2.185-1.6,3.415-3.911,3.415a13.9,13.9,0,0,1-8.615-3.5v4.108a15.161,15.161,0,0,0,8.923,2.44c5.3,0,8.711-2.769,8.711-6.917C108.479,63.565,95.91,65.288,95.91,60.008Z" style="fill:#808088"/><path d="M209.775,61.4c0-5.394-4.526-7.286-8.892-7.286H189.833V78.878h4.775V69.008h4.557l5.637,9.871h5.5l-5.957-10.446A7,7,0,0,0,209.775,61.4Zm-15.154-4.231h4.68c3.2,0,5.342,1.449,5.342,4.449,0,3.2-2.551,4.308-5.342,4.308h-4.68Z" style="fill:#808088"/><polygon points="153.381 78.878 159.353 78.878 149.012 65.097 158.763 54.109 154.692 54.109 142.562 67.78 142.562 54.109 137.787 54.109 137.787 78.878 142.562 78.878 142.562 72.361 145.775 68.743 153.381 78.878" style="fill:#808088"/><path d="M129.267,78.878h5.123l-9.677-24.948h-4.852l-9.677,24.945h3.908l2.545-6.557h10.086Zm-11.449-9.6,3.862-9.96,3.865,9.96Z" style="fill:#808088"/><path d="M231.877,78.878H237l-9.677-24.948h-4.852l-9.677,24.945H216.7l2.545-6.557h10.086Zm-11.449-9.6,3.868-9.96,3.865,9.96Z" style="fill:#808088"/><rect x="92.479" y="94.632" width="4.529" height="18.4" style="fill:#808088"/><circle cx="94.744" cy="89.82" r="2.689" style="fill:#808088"/><path d="M145.159,94.242c-5.539,0-8.794,3.926-8.794,9.539v.178c0,5.846,3.692,9.446,9.4,9.446a12.923,12.923,0,0,0,6.769-1.809v-3.132a10.813,10.813,0,0,1-6.7,2.338c-2.643,0-4.585-1.825-4.585-5.975H153.63C153.633,98.242,151.135,94.242,145.159,94.242Zm-3.858,7.966c.145-3.222,1.148-5.351,3.858-5.351,2.572,0,3.511,2.348,3.591,5.348Z" style="fill:#808088"/><path d="M200.84,94.242c-5.539,0-8.794,3.926-8.794,9.539v.178c0,5.846,3.692,9.446,9.4,9.446a12.923,12.923,0,0,0,6.769-1.809v-3.132a10.813,10.813,0,0,1-6.7,2.338c-2.643,0-4.585-1.825-4.585-5.975h12.382C209.311,98.242,206.812,94.242,200.84,94.242Zm-3.858,7.966c.145-3.222,1.16-5.351,3.858-5.351,2.572,0,3.511,2.348,3.591,5.348Z" style="fill:#808088"/><path d="M128.335,108.054v-10.8h5.335V94.632h-5.335V89.183h-4.529v5.449h-2.462v2.618h2.462v11.077c0,2.982,2.462,5.086,6.071,5.086a6.637,6.637,0,0,0,3.837-.969v-2.3a7.729,7.729,0,0,1-2.825.5A2.42,2.42,0,0,1,128.335,108.054Z" style="fill:#808088"/><path d="M112.562,94.242a8.237,8.237,0,0,0-6.015,3.114V94.632h-4.529v18.4h4.529V100.143a4.936,4.936,0,0,1,4.132-2.812,2.671,2.671,0,0,1,2.714,2.627q0,.028,0,.056v13.019h4.529V99.011C117.922,96.759,116.356,94.242,112.562,94.242Z" style="fill:#808088"/><path d="M182.821,94.242a8.237,8.237,0,0,0-6.015,3.114V94.632h-4.529v18.4h4.529V100.143a4.936,4.936,0,0,1,4.132-2.812,2.671,2.671,0,0,1,2.714,2.627q0,.028,0,.056v13.019h4.529V99.011C188.181,96.759,186.615,94.242,182.821,94.242Z" style="fill:#808088"/><path d="M162.249,97.882V94.632h-4.529v18.4h4.529V100.685a8.576,8.576,0,0,1,6.837-2.8V94.454A8.425,8.425,0,0,0,162.249,97.882Z" style="fill:#808088"/><path d="M218.877,108.054v-10.8h5.335V94.632h-5.335V89.183h-4.529v5.449h-2.462v2.618h2.462v11.077c0,2.982,2.462,5.086,6.071,5.086a6.637,6.637,0,0,0,3.837-.969v-2.3a7.729,7.729,0,0,1-2.825.5A2.421,2.421,0,0,1,218.877,108.054Z" style="fill:#808088"/></svg>